<svg width="100" height="20" viewBox="0 0 100 20" fill="none" xmlns="http://www.w3.org/2000/svg">
<g clip-path="url(#clip0_2:36)">
<path d="M6.9356 0.135663C6.15711 -0.0200339 5.36447 -0.0200339 4.60014 0.135663C1.81175 0.701835 0 2.9099 0 5.76907V14.7287C0 15.0967 0.0424628 15.3515 0.155697 15.5638L0.169851 15.578C0.29724 15.8186 0.537863 16.0026 0.806794 16.0734C1.08988 16.1442 1.38712 16.0875 1.62774 15.9177C2.09483 15.6063 2.15145 15.0684 2.15145 14.6863V11.0769H9.39844V14.7146C9.39844 15.1534 9.52583 15.4081 9.5966 15.5638C9.72399 15.8045 9.96461 15.9885 10.2335 16.0592C10.3043 16.0734 10.3892 16.0875 10.4742 16.0875C10.6865 16.0875 10.8846 16.0309 11.0545 15.9035C11.4791 15.6204 11.5357 15.1534 11.5357 14.6721V5.75491C11.5216 2.89575 9.72399 0.701835 6.9356 0.135663ZM9.38429 5.78322V9.06702H2.1656V5.78322C2.1656 4.36779 2.661 3.37699 3.75088 2.66928C4.51522 2.13142 5.52017 1.93326 6.51097 2.11726C6.99221 2.20219 7.41684 2.38619 7.78485 2.65513L7.79901 2.66928C8.87473 3.39115 9.38429 4.38195 9.38429 5.78322ZM32.9653 11.2043C32.8521 10.9637 32.6256 10.7797 32.3708 10.6948C32.1019 10.6098 31.8188 10.6523 31.564 10.7797C31.0686 11.0203 30.9696 11.5582 30.9413 11.7422L30.8563 12.1951L30.8422 12.3367C30.5166 13.7379 29.3843 14.5023 27.9405 14.2899C27.0064 14.1484 25.7608 13.653 25.7608 11.0769V10.9071H28.5916C28.9313 10.9071 29.9646 10.9071 29.9646 9.88796C29.9646 9.37841 29.5824 8.95378 29.1295 8.92547C28.9172 8.89716 28.7332 8.89716 28.5209 8.89716H25.7608V4.97643C25.7608 4.60842 25.7183 4.35364 25.6051 4.14133V4.12717C25.4777 3.88655 25.2371 3.70254 24.9682 3.63177C24.6851 3.561 24.3878 3.61762 24.1472 3.78747C23.7226 4.07055 23.666 4.53765 23.666 5.01889V10.8646C23.666 14.1909 24.8691 15.8611 27.5725 16.2999C27.8839 16.3565 28.1953 16.3848 28.5067 16.3848C30.6299 16.3848 32.4133 15.0684 32.9795 12.9736C33.0219 12.8037 33.0502 12.648 33.0786 12.4924V12.4782C33.1635 11.8696 33.1352 11.5299 32.9653 11.2043V11.2043ZM46.7941 8.41592C45.8882 5.03305 42.4345 3.07975 38.9243 3.95732C37.1267 4.41026 35.6688 5.50014 34.8195 7.0288C33.9703 8.55746 33.8146 10.3834 34.3807 12.1668C35.23 14.7853 37.6504 16.4272 40.4105 16.4272C40.9059 16.4272 41.4296 16.3706 41.9391 16.2574C42.7176 16.0875 43.482 15.762 44.1614 15.3232C44.6709 14.9835 45.0955 14.6155 45.322 14.3324C45.6759 13.9078 45.8882 13.5681 45.8457 13.1718C45.8174 12.9028 45.6759 12.6622 45.4636 12.4924C45.2371 12.3225 44.9398 12.2517 44.6709 12.3083L44.6284 12.3225C44.3595 12.4074 44.1472 12.5207 43.9774 12.6905L43.7933 12.917L43.5244 13.1576L43.5103 13.1718C42.9158 13.7662 42.1939 14.1767 41.4154 14.3324C39.3064 14.8137 37.2258 13.6955 36.4614 11.6856C36.4048 11.5157 36.3623 11.36 36.3199 11.2185H45.5768L45.7749 11.1902L46.0863 11.176C46.426 11.1477 46.6808 11.0203 46.8507 10.7797C47.1621 10.3409 47.1479 9.6898 46.7941 8.41592V8.41592ZM36.4331 8.76978C37.155 6.47678 39.4621 5.24536 41.7834 5.92476C43.2413 6.34939 44.3737 7.53835 44.7417 9.02455C44.77 9.13779 44.7983 9.25102 44.8125 9.36426L36.2916 9.29348C36.3199 9.10948 36.3765 8.95378 36.4331 8.76978V8.76978ZM57.707 7.49589C57.6645 7.31188 57.6079 7.15619 57.5655 7.01464L57.523 6.88726C56.787 4.84904 55.0885 3.64592 52.9936 3.66008C52.6256 3.66008 52.3142 3.68839 51.9887 3.75916C50.3185 4.12717 48.3369 5.33028 48.3369 8.96794V14.7146C48.3369 15.125 48.4359 15.3657 48.535 15.5638C48.6624 15.8045 48.903 15.9885 49.172 16.0592C49.2427 16.0734 49.3277 16.0875 49.4126 16.0875C49.6249 16.0875 49.8231 16.0309 49.9929 15.9035C50.4317 15.6063 50.4317 15.0967 50.4317 14.6721V8.96794C50.4317 7.04295 51.0403 6.10877 52.4558 5.82568C53.4041 5.61337 54.3383 5.92476 54.9186 6.61832C55.2017 6.95803 55.3715 7.28358 55.4423 7.56666C55.6546 8.58577 55.7679 8.89716 55.9094 9.09532L55.9519 9.15194C56.2633 9.5058 56.8153 9.60488 57.2682 9.37841C57.9193 9.02455 57.8485 8.18945 57.707 7.49589V7.49589Z" fill="black"/>
<path d="M70.0213 1.96163C68.9738 0.7019 67.4027 -0.0199681 65.7042 0.00834046C62.5195 0.0508033 60.368 2.35795 60.368 5.75498V14.7146C60.368 15.1251 60.4671 15.3657 60.5662 15.5639C60.6936 15.8045 60.9342 15.9885 61.2031 16.0593C61.2739 16.0735 61.3588 16.0876 61.4438 16.0876C61.6561 16.0876 61.8542 16.031 62.0241 15.9036C62.4629 15.6064 62.5195 15.111 62.5195 14.6722V10.6099H65.6193C68.5492 10.6099 70.545 9.08123 71.097 6.42023C71.4225 4.8208 71.0404 3.20721 70.0213 1.96163V1.96163ZM69.0305 5.35866C68.988 7.26949 67.5867 8.58584 65.6051 8.58584H65.5627L62.5478 8.54337V5.57097C62.5478 4.24047 62.746 3.61768 63.3829 2.96659C64.0057 2.31549 64.8266 2.00409 65.8033 2.01825C67.7141 2.06071 69.0446 3.43368 69.0305 5.35866ZM84.5436 9.43509C84.5152 8.92554 84.4445 8.4726 84.3171 8.06213C83.8783 6.53346 82.845 5.25958 81.4155 4.46694C79.8868 3.63184 78.0892 3.44783 76.3624 3.95739C74.1118 4.62264 72.4133 6.43438 71.9462 8.71322C71.2527 12.1386 73.1777 15.3374 76.419 16.1725C77.0135 16.3282 77.6221 16.399 78.2166 16.399C79.1225 16.399 80 16.215 80.7927 15.8611C81.4438 15.5639 82.0241 15.1676 82.477 14.6863V14.7146C82.477 15.0968 82.477 15.3233 82.5903 15.5497L82.6044 15.5639C82.7318 15.8045 82.9724 15.9885 83.2414 16.0593C83.5244 16.1301 83.8217 16.0735 84.0623 15.9036C84.5011 15.6064 84.5719 15.111 84.5719 14.6722V9.67572L84.5436 9.43509V9.43509ZM79.2215 14.2617C76.8861 14.7996 74.7205 13.5257 74.0977 11.2327V11.2185C73.9986 10.9213 73.9561 10.6241 73.9278 10.3268C73.8005 8.30275 75.0177 6.47685 76.9002 5.89652C77.3532 5.75498 77.8203 5.68421 78.2732 5.68421C79.1508 5.68421 79.9859 5.93898 80.7077 6.44854C81.7976 7.21287 82.4487 8.45845 82.4912 9.85972C82.5761 12.0253 81.2739 13.7946 79.2215 14.2617ZM95.7821 4.53771L95.3433 4.75002L95.7821 4.53771L95.7679 4.5094C95.6405 4.26878 95.3999 4.08477 95.131 4.014C94.8479 3.94323 94.5506 3.99985 94.31 4.1697C93.8854 4.45279 93.8429 4.93403 93.8429 5.40112V11.1053C93.8429 12.2235 93.5032 13.1294 92.8946 13.6672C92.3567 14.1343 91.6348 14.3183 90.7997 14.2051C89.356 14.0069 88.5634 12.9737 88.5634 11.2893V5.37281C88.5634 5.01896 88.5351 4.76418 88.4218 4.52356C88.2944 4.28293 88.0538 4.09893 87.7849 4.02816C87.5018 3.95739 87.2046 4.014 86.9639 4.18385C86.5252 4.48109 86.4544 4.97649 86.4544 5.41528V11.3318C86.4544 13.6955 87.5301 15.3657 89.4975 16.0451C91.0121 16.5689 92.6681 16.3141 93.8146 15.4648V15.5073C93.6306 16.7529 92.9937 17.503 91.8613 17.8003C91.2527 17.9701 90.6299 17.9277 90.1487 17.687C89.7523 17.4889 89.4692 17.2624 89.2994 17.0218L88.988 16.6255L88.7898 16.399C88.6624 16.2291 88.5634 16.1442 88.5068 16.1018L88.4501 16.0451L88.3935 16.0168C88.1104 15.847 87.7566 15.8328 87.4593 15.9744C87.1479 16.1159 86.9215 16.399 86.8649 16.7245C86.7941 17.1775 86.9781 17.5597 87.3036 18.0551L87.3178 18.0692C87.5584 18.4089 87.884 18.7486 88.2378 19.0317C89.0022 19.6403 90.0071 19.9517 91.0687 19.9517C91.5216 19.9517 91.9746 19.8951 92.4275 19.7819C94.7063 19.2015 95.9661 17.3756 95.9661 14.6439V5.37281C95.9802 4.93403 95.8528 4.69341 95.7821 4.53771V4.53771Z" fill="black"/>
<path d="M22.4063 7.49591C22.3638 7.3119 22.3213 7.1562 22.2647 7.01466L22.2223 6.88727C21.4862 4.84906 19.7877 3.64594 17.6929 3.6601C17.3107 3.6601 17.0135 3.68841 16.6879 3.75918C15.0177 4.12719 13.0361 5.3303 13.0361 8.96795V14.7146C13.0361 15.1534 13.1635 15.4082 13.2343 15.5497V15.5638C13.3617 15.8045 13.6023 15.9885 13.8712 16.0592C13.942 16.0734 14.0269 16.0876 14.1119 16.0876C14.3242 16.0876 14.5223 16.0309 14.6922 15.9036C15.1168 15.6205 15.1734 15.1392 15.1734 14.6721V13.3133L15.131 10.9212H18.1458C19.1366 10.9212 19.3773 10.4117 19.4056 9.97291C19.4197 9.6049 19.2782 9.37843 19.1649 9.25104C18.9526 9.02457 18.6129 8.91134 18.1458 8.91134H15.1168C15.131 7.04297 15.7396 6.12294 17.1409 5.8257C18.0892 5.61339 19.0234 5.92478 19.6037 6.61834C19.8868 6.9722 20.0567 7.28359 20.1274 7.56668C20.3397 8.58579 20.453 8.89718 20.5945 9.09534L20.637 9.15196C20.9484 9.50581 21.5004 9.60489 21.9533 9.37843C22.6186 9.02457 22.5478 8.18947 22.4063 7.49591V7.49591Z" fill="black"/>
<path d="M99.5472 3.16476C99.2358 3.47615 98.8677 3.63185 98.4431 3.63185C98.0043 3.63185 97.6363 3.47615 97.339 3.16476C97.0418 2.85336 96.886 2.48535 96.886 2.06072C96.886 1.6361 97.0418 1.26808 97.339 0.956691C97.6504 0.645296 98.0184 0.503754 98.4431 0.503754C98.8819 0.503754 99.2499 0.659451 99.5472 0.956691C99.8586 1.25393 100 1.62194 100 2.06072C100 2.48535 99.8444 2.85336 99.5472 3.16476ZM97.4806 1.09823C97.2258 1.36716 97.0842 1.67856 97.0842 2.04657C97.0842 2.41458 97.2116 2.74013 97.4806 3.00906C97.7495 3.27799 98.0609 3.40538 98.4289 3.40538C98.797 3.40538 99.1225 3.27799 99.3773 3.00906C99.6321 2.74013 99.7737 2.42874 99.7737 2.04657C99.7737 1.67856 99.6463 1.35301 99.3773 1.09823C99.1084 0.829302 98.797 0.701914 98.4289 0.701914C98.0609 0.701914 97.7495 0.843456 97.4806 1.09823V1.09823ZM98.4006 1.18316C98.613 1.18316 98.7687 1.19731 98.8677 1.23978C99.0376 1.31055 99.1367 1.45209 99.1367 1.67856C99.1367 1.83426 99.0801 1.94749 98.9668 2.01826C98.9102 2.06072 98.8253 2.08903 98.712 2.10319C98.8394 2.1315 98.9385 2.18811 99.0093 2.27304C99.0659 2.35796 99.1084 2.45704 99.1084 2.54197V2.79675C99.1084 2.83921 99.1084 2.86752 99.1225 2.88167L99.1367 2.89583H98.8536V2.88167V2.66936C98.8536 2.4712 98.797 2.34381 98.6979 2.27304C98.6271 2.23058 98.528 2.21642 98.3582 2.21642H98.1175V2.89583H97.8061V1.18316H98.4006V1.18316ZM98.7262 1.46624C98.6554 1.42378 98.528 1.39547 98.3582 1.39547H98.1034V2.01826H98.3723C98.4997 2.01826 98.5988 2.00411 98.6554 1.9758C98.7687 1.93334 98.8394 1.83426 98.8394 1.70687C98.8394 1.59363 98.8111 1.50871 98.7262 1.46624Z" fill="black"/>
</g>
<defs>
<clipPath id="clip0_2:36">
<rect width="100" height="19.96" fill="white"/>
</clipPath>
</defs>
</svg>
