<svg width="100" height="100" viewBox="0 0 100 100" fill="none" xmlns="http://www.w3.org/2000/svg">
<g clip-path="url(#clip0_2:49)">
<path d="M78.3334 62.5C72.8183 62.5 68.3334 66.985 68.3334 72.5C68.3334 78.015 72.8183 82.5 78.3334 82.5C83.8484 82.5 88.3334 78.015 88.3334 72.5C88.3334 66.985 83.8482 62.5 78.3334 62.5ZM78.3334 79.1666C74.6566 79.1666 71.6668 76.1766 71.6668 72.5C71.6668 68.8234 74.6568 65.8334 78.3334 65.8334C82.0101 65.8334 85 68.8234 85 72.5C85 76.1766 82.0099 79.1666 78.3334 79.1666Z" fill="black"/>
<path d="M21.6666 62.5C16.1516 62.5 11.6666 66.985 11.6666 72.5C11.6666 78.015 16.1516 82.5 21.6666 82.5C27.1817 82.5 31.6666 78.015 31.6666 72.5C31.6666 66.985 27.1817 62.5 21.6666 62.5ZM21.6666 79.1666C17.9899 79.1666 15 76.1766 15 72.5C15 68.8234 17.9901 65.8334 21.6666 65.8334C25.3432 65.8334 28.3332 68.8234 28.3332 72.5C28.3332 76.1766 25.3434 79.1666 21.6666 79.1666Z" fill="black"/>
<path d="M99.7901 48.3566L91.4567 33.3566C91.1633 32.8283 90.6049 32.5 90 32.5H70C69.0801 32.5 68.3334 33.2467 68.3334 34.1666V59.1666H65C65 46.5816 65 24.1666 65 24.1666C65 20.4898 62.01 17.5 58.3334 17.5H3.33345C2.41353 17.5 1.66685 18.2467 1.66685 19.1666V57.5C0.746924 57.5 0.000244141 58.2467 0.000244141 59.1666V67.5016C0.000244141 67.9449 0.175244 68.3682 0.488525 68.6816C0.801807 68.9934 1.22524 69.1684 1.66685 69.1684H1.6686L6.66685 69.1668C6.66685 69.1668 8.33345 69.1668 9.18013 67.8135C11.125 62.6318 16.1102 59.1668 21.6668 59.1668C27.3102 59.1668 32.3618 62.7385 34.2418 68.0551C34.4768 68.7217 35.1069 69.1668 35.8135 69.1668H63.3334C64.2534 69.1668 65 68.4201 65 67.5002C65 67.4986 65 67.4951 65 67.4918C65 67.3885 65 65.4617 65 62.5002H68.9051C69.2868 62.5002 69.6569 62.3685 69.9534 62.1285C72.3483 60.1902 75.245 59.1668 78.3334 59.1668C83.9768 59.1668 89.0284 62.7385 90.9084 68.0551C91.1434 68.7217 91.7735 69.1668 92.4801 69.1668H98.3334C99.2534 69.1668 100 68.4201 100 67.5002V49.1668C100 48.8834 99.9284 48.6051 99.7901 48.3566ZM36.9467 65.835V65.8332C34.3151 59.8049 28.3184 55.8332 21.6667 55.8332C15.0167 55.8332 9.02173 59.8031 6.38833 65.8281C5.52329 65.8299 4.31157 65.8314 3.33325 65.8332V60.8332C4.25317 60.8332 4.99985 60.0865 4.99985 59.1666V54.1666H6.66646C7.58638 54.1666 8.33306 53.4199 8.33306 52.5C8.33306 51.5801 7.58638 50.8334 6.66646 50.8334H5.00005V37.5H49.31L45.4883 41.3217C44.8366 41.9732 44.8366 43.0268 45.4883 43.6783C45.8133 44.0033 46.2401 44.1666 46.6666 44.1666C47.0934 44.1666 47.52 44.0033 47.845 43.6783L54.5118 37.0117C55.1635 36.36 55.1635 35.3066 54.5118 34.6551L47.845 27.9883C47.1932 27.3367 46.1399 27.3367 45.4883 27.9883C44.8368 28.64 44.8366 29.6934 45.4883 30.3449L49.31 34.1666H5.00005V20.8332H58.3334C60.1717 20.8332 61.6668 22.3281 61.6668 24.1666V60.7299C61.6668 62.9766 61.6668 64.6248 61.6985 65.835H36.9467ZM78.3334 35.8334H89.0202L95.5018 47.5H78.3334V35.8334ZM96.6667 54.1666H95C94.0801 54.1666 93.3334 54.9133 93.3334 55.8332C93.3334 56.7531 94.0801 57.4998 95 57.4998H96.6667V65.8332H93.6133C90.9817 59.8049 84.985 55.8332 78.3333 55.8332C76.0299 55.8332 73.7565 56.3166 71.6667 57.2266V35.8334H75V49.1668C75 50.0867 75.7467 50.8334 76.6666 50.8334H96.6667V54.1666Z" fill="black"/>
</g>
<defs>
<clipPath id="clip0_2:49">
<rect width="100" height="100" fill="white"/>
</clipPath>
</defs>
</svg>
