<svg width="100" height="100" viewBox="0 0 100 100" fill="none" xmlns="http://www.w3.org/2000/svg">
<path fill-rule="evenodd" clip-rule="evenodd" d="M22.1539 45.7023C22.1539 41.5836 19.1994 38.6291 15.5285 38.6291C14.2751 38.6291 13.0211 38.8978 11.9473 39.7933C10.9626 38.9876 9.70867 38.6291 8.45527 38.6291C4.60533 38.6291 1.47131 41.9421 1.47131 46.1505C1.47131 53.5816 8.63425 59.6707 11.9473 61.3718V56.8049C16.0654 55.3725 22.1539 50.5374 22.1539 45.7023V45.7023ZM11.9467 52.5965V56.7151C9.26044 54.4771 5.58947 50.2686 5.58947 46.329C5.58947 44.2694 7.02185 42.5683 8.90247 42.5683C10.3354 42.5683 11.499 43.4637 11.9467 44.7176C12.3944 43.4637 13.6478 42.5683 14.991 42.5683C16.7819 42.5683 18.125 44.0904 18.125 45.8812C18.1245 48.9255 13.8268 51.7015 11.9467 52.5965V52.5965ZM96.3804 52.6867V52.0595H96.7379C97.0066 52.0595 97.1856 52.0595 97.1856 52.3282C97.1856 52.597 97.0061 52.6867 96.7379 52.6867H96.3804ZM96.3804 52.9549H96.6492L97.1861 53.8498H97.6338L97.0066 52.9549C97.3651 52.8647 97.5446 52.7754 97.5446 52.3277C97.5446 51.9703 97.2759 51.7908 96.8281 51.7908H96.0225V53.8498H96.3799V52.9549H96.3804ZM98.5298 52.7759C98.5298 51.6118 97.7231 50.8953 96.7384 50.8953C95.7537 50.8953 94.8588 51.6118 94.8588 52.7759C94.8588 53.8498 95.6645 54.6566 96.7384 54.6566C97.7231 54.6566 98.5298 53.8498 98.5298 52.7759ZM98.1708 52.7759C98.1708 53.6719 97.5446 54.2981 96.7379 54.2981C95.843 54.2981 95.306 53.5816 95.306 52.7759C95.306 51.88 95.9322 51.2538 96.7379 51.2538C97.5446 51.2538 98.1708 51.88 98.1708 52.7759ZM47.2245 48.5675C47.2245 49.105 47.1347 49.105 47.0455 49.105C46.508 49.105 46.6875 47.4936 45.1649 47.4936C44.6279 47.4936 44.0013 47.7624 44.0013 48.3891C44.0013 49.9112 47.6722 49.643 47.6722 52.419C47.583 54.5673 45.6131 54.9258 44.6279 54.9258C43.7325 54.9258 42.5684 54.6571 42.5684 54.0299C42.5684 53.1339 42.5683 52.5077 42.8371 52.5077C43.195 52.5077 43.1058 54.2981 44.8069 54.2981C45.6131 54.2981 46.2398 53.9406 46.2398 53.2242C46.2398 51.2543 42.6586 51.5231 42.6586 49.3742C42.6586 47.4936 44.1808 46.9567 45.5234 46.9567C46.3291 46.9567 47.2245 47.4044 47.2245 47.4942V48.5675ZM29.4959 48.388C29.4959 48.7465 29.5856 48.8357 30.1226 48.8357C31.6447 48.8357 31.9134 48.567 32.0924 48.2091C32.2714 47.6721 32.2714 47.3136 32.5401 47.3136C32.7191 47.3136 32.8089 47.4034 32.8089 49.3732C32.8089 50.7164 32.7196 51.0743 32.5401 50.9851C32.3611 50.9851 32.2714 50.7164 32.1822 50.3579C32.0929 49.9999 31.9134 49.3732 30.481 49.3732C29.5856 49.3732 29.4964 49.4624 29.4964 49.9999V52.8647C29.5861 53.8493 29.7651 53.9396 30.6605 54.1191C31.1083 54.2083 31.2872 54.2976 31.2872 54.4765C31.2872 54.6555 31.0185 54.7453 30.6605 54.7453H26.6316C26.4521 54.7453 26.3629 54.656 26.3629 54.3878C26.3629 54.2083 26.5419 54.1191 27.2583 54.1191C27.5271 54.1191 27.706 54.0288 27.706 53.4026V45.5233C27.706 44.8966 27.6168 44.8068 27.1686 44.7176C26.5419 44.7176 26.5419 44.6278 26.5419 44.4489C26.5419 44.1801 26.7209 44.0909 27.1686 44.0909H32.9884C33.5258 44.0909 33.7048 44.0909 33.7048 44.8966C33.7048 46.6874 33.7048 46.6874 33.4361 46.6874C33.2571 46.6874 33.2571 46.0607 32.9884 45.7023C32.6304 44.8068 31.1077 44.7176 30.5708 44.7176C29.6754 44.8068 29.4964 44.8068 29.4964 45.8812V48.388H29.4959V48.388ZM50.2688 52.418C50.2688 53.4919 50.5375 53.6714 51.2539 53.6714C51.6114 53.6714 52.0596 53.4919 52.1489 53.4919C52.2391 53.4919 52.3284 53.5811 52.3284 53.7606C52.3284 54.2083 51.4324 54.9248 50.3585 54.9248C49.3738 54.9248 48.6574 54.3878 48.6574 52.9549V48.388C48.6574 48.2091 48.6574 48.1193 48.4784 48.1193C47.9415 48.1193 47.7625 48.1193 47.7625 47.8506C47.7625 47.5818 48.4784 47.4034 49.0164 46.8659C49.6431 46.2392 49.9118 45.5228 50.18 45.5228C50.5385 45.5228 50.0908 47.0449 50.6278 47.0449H51.9714C52.3289 47.0449 52.4181 47.1346 52.4181 47.4926C52.4181 47.9403 52.1494 47.9403 52.0607 47.9403H50.717C50.179 47.9403 50.2688 48.209 50.2688 48.7465V52.418V52.418ZM41.136 47.0454C39.9718 47.0454 39.7036 47.8511 39.4349 47.8511C39.0769 47.8511 39.5246 46.7767 39.0769 46.7767C38.8979 46.7767 38.8082 47.1346 38.0917 47.5824C37.5548 47.9403 37.107 48.1198 37.107 48.388C37.0173 48.9255 37.7337 48.388 37.7337 49.6419C37.7337 49.6419 37.9127 53.7606 37.6445 53.8498C37.3758 53.9401 37.1968 54.2976 36.7486 54.2976C36.3014 54.2976 36.0326 54.0288 36.0326 54.0288C35.8536 53.7601 35.9434 53.5811 35.9434 53.1329V48.2983V46.8659C35.9434 46.7762 35.8536 46.7762 35.7644 46.7762C35.6747 46.7762 35.4059 47.2239 34.869 47.5818C33.8843 48.0296 33.4366 47.8506 33.4366 48.2085C33.4366 48.925 34.332 48.2983 34.332 49.3727V53.4021C34.332 53.7596 34.2428 53.9391 34.0633 54.1186C34.0633 54.1186 33.8843 54.2078 33.7053 54.2078C33.3474 54.297 33.1679 54.3873 33.1679 54.5653C33.1679 54.6555 33.2576 54.7448 33.4366 54.7448H40.6888C40.9575 54.7448 41.0467 54.7448 41.0467 54.476C41.136 54.1186 40.3308 54.1186 40.3308 54.1186C39.5246 54.1186 39.3456 53.6709 39.3456 53.0436V49.7312C39.3456 48.9255 39.5246 48.4778 39.8831 48.4778C40.3308 48.4778 40.5995 49.2835 41.3155 49.2835C42.1212 49.2835 42.3001 48.567 42.3001 48.2988C42.2996 47.5824 41.7627 47.0454 41.136 47.0454ZM83.3977 52.418C83.3977 53.4919 83.7551 53.6714 84.3823 53.6714C84.8301 53.6714 85.188 53.4919 85.2783 53.4919C85.3675 53.4919 85.4568 53.5811 85.4568 53.7606C85.4568 54.2083 84.6511 54.9248 83.4869 54.9248C82.5023 54.9248 81.7858 54.3878 81.7858 52.9549L81.8761 48.388C81.8761 48.2091 81.7858 48.1193 81.6966 48.1193C81.1596 48.1193 80.8909 48.1193 80.8909 47.8506C80.8909 47.5818 81.6966 47.4034 82.2335 46.8659C82.7705 46.2392 83.0402 45.5228 83.3085 45.5228C83.7551 45.5228 83.2182 47.0449 83.8454 47.0449H85.188C85.5465 47.0449 85.6357 47.1346 85.6357 47.4926C85.5465 47.9403 85.367 47.9403 85.2783 47.9403H83.9346C83.3977 47.9403 83.3977 48.209 83.3977 48.7465V52.418ZM88.5015 48.1198L88.5908 48.2091C88.6811 48.2091 89.5754 47.1346 90.8288 47.1346C92.1725 47.1346 93.2464 47.7613 93.2464 49.8209V53.4919C93.2464 53.8493 93.4259 53.9396 93.6941 54.1191C94.1418 54.2976 94.1418 54.2976 94.1418 54.4765C94.1418 54.6555 93.9623 54.7453 93.6049 54.7453C93.4254 54.7453 91.4555 54.656 91.0971 54.656C90.8283 54.656 90.5601 54.656 90.5601 54.4765C90.5601 54.2078 91.0078 54.2078 91.2766 54.0288C91.5453 53.9396 91.635 53.4919 91.635 52.6862V49.8209C91.635 49.6419 91.8135 48.2988 90.0232 48.2988C89.5754 48.2988 88.501 48.6568 88.501 49.6419V53.6714C88.501 53.9401 88.5903 54.0288 88.7698 54.0288C89.0385 54.2083 89.2175 54.2083 89.397 54.2976C89.5754 54.2976 89.7544 54.3878 89.7544 54.4771C89.7544 54.6566 89.4857 54.7458 89.2175 54.7458C88.859 54.7458 86.6204 54.6566 86.0835 54.7458C85.904 54.7458 85.8147 54.5663 85.8147 54.3883C85.904 54.2088 86.2624 54.2088 86.4409 54.1196C86.8886 53.8498 86.8886 53.6719 86.8886 52.7759V45.3443C86.7994 44.8068 86.0829 44.9863 86.0829 44.6279C86.0829 44.3591 87.9636 43.5534 88.2323 43.5534C88.501 43.6432 88.501 44.0012 88.501 44.3596V48.1198H88.5015ZM80.3539 54.0293C79.816 53.8498 79.7267 53.7606 79.7267 53.4032V44.0012C79.7267 43.7324 79.7267 43.5534 79.5472 43.5534C79.458 43.5534 78.8308 44.0012 78.5626 44.0909C78.0256 44.3596 77.3092 44.4489 77.3092 44.8074C77.3092 45.0761 77.6676 45.1653 77.8461 45.3448C78.1148 45.5238 78.1148 45.7028 78.1148 46.9562V52.4185C78.1148 53.2242 78.0256 53.4924 77.8461 53.6719C77.7569 53.8504 77.6676 53.8504 77.4887 53.9406C77.2199 54.0299 77.0409 54.0299 76.7722 53.9406C76.5035 53.8504 76.145 53.4929 76.145 52.597V52.1493V48.5681C76.145 47.5834 75.6983 46.9567 74.1752 46.9567C72.2053 46.8675 70.7724 48.7476 70.7724 49.2845C70.7724 49.5532 70.8627 49.7322 71.2201 49.822C71.7571 49.822 72.295 49.3742 72.3843 48.7476C72.5638 47.8516 73.1007 47.6731 73.6377 47.5834C74.4434 47.5834 74.7116 48.2101 74.7116 49.1055C74.7116 49.5532 74.7116 49.7322 74.3541 49.9112C73.2802 50.6276 71.0406 51.1646 70.9514 53.3139C70.8622 54.7468 71.7571 55.015 72.2048 54.9258C73.4582 54.9258 74.5331 53.9412 74.5331 53.9412C74.7116 54.0304 75.2496 54.7468 76.0552 54.7468H78.7415C79.3688 54.7468 80.8006 54.8361 81.0688 54.6576C81.2483 54.5673 80.9796 54.2099 81.0688 54.2991C80.9801 54.2083 80.9801 54.2083 80.3539 54.0293V54.0293ZM73.1007 53.8498C72.653 53.7606 72.3843 53.4032 72.3843 52.8652C72.3843 51.4333 74.1746 50.6271 74.3541 50.6271C74.6229 50.5379 74.6229 50.8066 74.6229 51.5231C74.7121 53.2237 74.3541 54.0293 73.1007 53.8498ZM67.6394 47.4931C68.6241 47.4931 68.8026 48.2988 68.8026 48.5675C68.8026 49.5522 68.5338 49.8214 66.386 49.7317C66.0275 49.7317 65.848 49.7317 65.848 49.463C65.848 48.7465 66.5645 47.4931 67.6394 47.4931V47.4931ZM70.057 50.4481C70.3257 50.4481 70.3257 50.2686 70.3257 50.0897C70.3257 48.9255 69.6093 46.9557 67.4604 46.9557C65.8486 46.8664 64.0577 48.6568 64.0577 51.0743C64.0577 53.2237 65.4906 54.9248 67.2809 54.9248C69.2508 54.9248 70.1462 53.4026 70.1462 53.1334C70.1462 52.9549 70.1462 52.8647 69.9667 52.8647C69.6093 52.9549 68.9821 53.7606 67.9076 53.6714C66.923 53.6714 65.7583 52.6867 65.7583 51.0743C65.7583 50.2686 66.206 50.4481 66.3855 50.4481H70.057V50.4481Z" fill="black"/>
<path fill-rule="evenodd" clip-rule="evenodd" d="M60.5658 54.7454C60.3863 54.7454 60.2073 54.6562 60.2073 54.4767C60.2073 54.2972 60.476 54.2079 61.014 54.1192C61.2827 54.029 61.4607 53.7607 61.4607 53.1335V50.4483C61.4607 50.0898 61.4607 49.6421 61.014 49.6421H58.0584C57.7897 49.6421 57.5215 49.6421 57.5215 50.179V53.1335C57.5215 53.7607 57.7902 54.0295 57.9692 54.1192C58.5964 54.2085 58.7749 54.2977 58.7749 54.4767C58.7749 54.6557 58.6856 54.7454 58.5061 54.7454H54.8351C54.6567 54.7454 54.5664 54.6562 54.5664 54.4767C54.5664 54.3874 54.7459 54.2972 55.3721 54.1192C55.6419 54.029 55.9101 53.9397 55.9101 53.4028V45.5234C55.9101 45.0757 55.8198 44.7177 55.3721 44.7177C54.9254 44.7177 54.6567 44.628 54.6567 44.3597C54.6567 44.1802 54.9254 44.091 55.1034 44.091H58.2374C58.4169 44.091 58.6851 44.091 58.6851 44.449C58.6851 44.628 58.5056 44.7177 58.0579 44.7177C57.6112 44.8069 57.5209 44.9864 57.5209 45.4336V48.3881C57.5209 48.6569 57.5209 48.9256 57.8794 48.9256H61.1027C61.4602 48.9256 61.4602 48.6569 61.4602 48.3881V45.1649C61.4602 44.8069 61.1027 44.7177 60.9232 44.7177C60.5658 44.7177 60.297 44.628 60.297 44.449C60.297 44.1802 60.5658 44.091 60.834 44.091H63.8777C64.2362 44.091 64.3255 44.1802 64.3255 44.3597C64.3255 44.8075 63.7885 44.7177 63.4295 44.8075C63.3403 44.8967 63.1608 44.9864 63.1608 45.6131V53.134C63.1608 53.7613 63.251 54.03 63.788 54.1197C64.1454 54.209 64.3249 54.209 64.3249 54.4772C64.3249 54.6567 64.2357 54.7459 63.9675 54.7459L60.5658 54.7454V54.7454Z" fill="black"/>
</svg>
