<svg width="512" height="400" viewBox="0 0 512 400" fill="none" xmlns="http://www.w3.org/2000/svg">
<rect width="512" height="400" rx="10" fill="white"/>
<rect x="25" y="25" width="259" height="47" rx="23.5" fill="#E5E5E5"/>
<path d="M73.2266 48.7773H67.5762L66.502 52H63.0752L68.8975 36.3594H71.8838L77.7383 52H74.3115L73.2266 48.7773ZM68.4463 46.167H72.3564L70.3906 40.3125L68.4463 46.167ZM84.1406 48.1221L87.6855 36.3594H91.2734L85.8271 52H82.4648L77.04 36.3594H80.6172L84.1406 48.1221ZM102.166 45.2217H95.9785V49.4111H103.24V52H92.7559V36.3594H103.219V38.9697H95.9785V42.6973H102.166V45.2217ZM110.921 46.2744H108.354V52H105.131V36.3594H110.942C112.79 36.3594 114.215 36.7712 115.218 37.5947C116.22 38.4183 116.722 39.582 116.722 41.0859C116.722 42.153 116.489 43.0446 116.023 43.7607C115.565 44.4697 114.867 45.0355 113.929 45.458L117.312 51.8496V52H113.854L110.921 46.2744ZM108.354 43.6641H110.953C111.762 43.6641 112.389 43.46 112.833 43.0518C113.277 42.6364 113.499 42.0671 113.499 41.3438C113.499 40.6061 113.288 40.026 112.865 39.6035C112.45 39.181 111.809 38.9697 110.942 38.9697H108.354V43.6641ZM128.012 48.7773H122.361L121.287 52H117.86L123.683 36.3594H126.669L132.523 52H129.097L128.012 48.7773ZM123.231 46.167H127.142L125.176 40.3125L123.231 46.167ZM146.123 50.0234C145.543 50.7181 144.723 51.2588 143.663 51.6455C142.603 52.0251 141.429 52.2148 140.14 52.2148C138.786 52.2148 137.597 51.9212 136.573 51.334C135.556 50.7396 134.769 49.8802 134.21 48.7559C133.659 47.6315 133.376 46.3102 133.361 44.792V43.7285C133.361 42.1673 133.623 40.8174 134.146 39.6787C134.675 38.5329 135.435 37.6592 136.423 37.0576C137.418 36.4489 138.582 36.1445 139.914 36.1445C141.769 36.1445 143.219 36.5885 144.265 37.4766C145.31 38.3574 145.93 39.6429 146.123 41.333H142.986C142.843 40.4378 142.524 39.7826 142.03 39.3672C141.543 38.9518 140.87 38.7441 140.011 38.7441C138.915 38.7441 138.081 39.1559 137.508 39.9795C136.935 40.8031 136.645 42.0277 136.638 43.6533V44.6523C136.638 46.2923 136.949 47.5312 137.572 48.3691C138.195 49.207 139.108 49.626 140.312 49.626C141.522 49.626 142.385 49.3682 142.9 48.8525V46.1562H139.968V43.7822H146.123V50.0234ZM158.154 45.2217H151.967V49.4111H159.229V52H148.744V36.3594H159.207V38.9697H151.967V42.6973H158.154V45.2217ZM166.598 52V36.3594H171.41C172.785 36.3594 174.013 36.6709 175.095 37.2939C176.183 37.9098 177.032 38.7907 177.641 39.9365C178.249 41.0752 178.554 42.3714 178.554 43.8252V44.5449C178.554 45.9987 178.253 47.2913 177.651 48.4229C177.057 49.5544 176.215 50.4316 175.127 51.0547C174.038 51.6777 172.81 51.9928 171.442 52H166.598ZM169.82 38.9697V49.4111H171.378C172.638 49.4111 173.602 48.9993 174.268 48.1758C174.934 47.3522 175.274 46.1742 175.288 44.6416V43.8145C175.288 42.2246 174.959 41.0215 174.3 40.2051C173.641 39.3815 172.678 38.9697 171.41 38.9697H169.82ZM185.826 43.4062L189.081 36.3594H192.604L187.47 46.3281V52H184.193V46.3281L179.059 36.3594H182.593L185.826 43.4062ZM206.752 52H203.529L197.256 41.709V52H194.033V36.3594H197.256L203.54 46.6719V36.3594H206.752V52ZM218.59 48.7773H212.939L211.865 52H208.438L214.261 36.3594H217.247L223.102 52H219.675L218.59 48.7773ZM213.81 46.167H217.72L215.754 40.3125L213.81 46.167ZM228.773 36.3594L232.791 47.7031L236.787 36.3594H241.02V52H237.786V47.7246L238.108 40.3447L233.887 52H231.674L227.463 40.3555L227.785 47.7246V52H224.562V36.3594H228.773ZM247.261 52H244.038V36.3594H247.261V52ZM262.536 46.79C262.414 48.473 261.791 49.7979 260.667 50.7646C259.55 51.7314 258.075 52.2148 256.241 52.2148C254.236 52.2148 252.657 51.5417 251.504 50.1953C250.358 48.8418 249.785 46.987 249.785 44.6309V43.6748C249.785 42.1709 250.05 40.846 250.58 39.7002C251.11 38.5544 251.866 37.6771 252.847 37.0684C253.835 36.4525 254.981 36.1445 256.284 36.1445C258.089 36.1445 259.543 36.6279 260.646 37.5947C261.748 38.5615 262.386 39.9186 262.558 41.666H259.335C259.256 40.6562 258.973 39.9258 258.486 39.4746C258.007 39.0163 257.272 38.7871 256.284 38.7871C255.21 38.7871 254.404 39.1738 253.867 39.9473C253.337 40.7135 253.065 41.9059 253.051 43.5244V44.7061C253.051 46.3962 253.305 47.6315 253.813 48.4121C254.329 49.1927 255.138 49.583 256.241 49.583C257.237 49.583 257.978 49.3574 258.465 48.9062C258.959 48.4479 259.242 47.7425 259.313 46.79H262.536Z" fill="#5C4372"/>
<circle cx="48" cy="54" r="6" fill="#5C4372"/>
<line x1="25" y1="124" x2="25" y2="334" stroke="#EFEFF1" stroke-width="2"/>
<line x1="111" y1="124" x2="111" y2="334" stroke="#EFEFF1" stroke-width="2"/>
<line x1="198" y1="124" x2="198" y2="334" stroke="#EFEFF1" stroke-width="2"/>
<line x1="285" y1="124" x2="285" y2="334" stroke="#EFEFF1" stroke-width="2"/>
<line x1="372" y1="124" x2="372" y2="334" stroke="#EFEFF1" stroke-width="2"/>
<line x1="458" y1="126" x2="458" y2="336" stroke="#EFEFF1" stroke-width="2"/>
<path d="M27.5 333.5C49 295.5 69.5 306.5 78.5 306.5C107 316.5 119 316.5 149 316.5C149 316.5 180.5 309.5 195.5 285C210.5 260.5 211 232 236 203C244.26 192.79 249.389 188.279 260.5 185C260.5 185 278.346 180.483 290 180.5C310.037 180.529 316 190.5 336.5 199C357 207.5 372 203 372 203C418.539 183.535 432.5 157.5 456.5 128" stroke="#41235A" stroke-width="7" stroke-linecap="round"/>
<circle cx="286" cy="183" r="12.5" fill="white" stroke="#41235A" stroke-width="5"/>
<path d="M263.049 139.267H268.615V142.519H263.049V148.861H259.592V142.519H253.996V139.267H259.592V133.334H263.049V139.267ZM275.441 138.71H277.609C278.703 138.7 279.567 138.417 280.202 137.86C280.847 137.304 281.169 136.498 281.169 135.443C281.169 134.428 280.9 133.642 280.363 133.085C279.836 132.519 279.025 132.235 277.932 132.235C276.975 132.235 276.188 132.514 275.573 133.07C274.958 133.617 274.65 134.335 274.65 135.224H271.091C271.091 134.13 271.379 133.134 271.955 132.235C272.541 131.337 273.352 130.639 274.387 130.141C275.432 129.633 276.599 129.379 277.888 129.379C280.017 129.379 281.687 129.916 282.897 130.99C284.118 132.055 284.729 133.539 284.729 135.443C284.729 136.4 284.421 137.304 283.806 138.153C283.2 138.993 282.414 139.628 281.447 140.058C282.619 140.458 283.508 141.088 284.113 141.947C284.729 142.807 285.036 143.832 285.036 145.023C285.036 146.938 284.377 148.461 283.059 149.594C281.75 150.727 280.026 151.293 277.888 151.293C275.837 151.293 274.157 150.746 272.849 149.652C271.54 148.559 270.886 147.104 270.886 145.287H274.445C274.445 146.225 274.758 146.986 275.383 147.572C276.018 148.158 276.867 148.451 277.932 148.451C279.035 148.451 279.904 148.158 280.539 147.572C281.174 146.986 281.491 146.137 281.491 145.023C281.491 143.9 281.159 143.036 280.495 142.431C279.831 141.825 278.845 141.522 277.536 141.522H275.441V138.71ZM289.328 140.424L290.485 129.672H301.94V132.748H293.444L292.858 137.846C293.845 137.279 294.958 136.996 296.198 136.996C298.229 136.996 299.807 137.646 300.93 138.944C302.062 140.243 302.629 141.991 302.629 144.188C302.629 146.356 302.004 148.085 300.754 149.374C299.504 150.653 297.79 151.293 295.612 151.293C293.659 151.293 292.038 150.741 290.749 149.638C289.47 148.524 288.776 147.06 288.669 145.243H292.111C292.248 146.278 292.619 147.074 293.225 147.631C293.83 148.178 294.621 148.451 295.598 148.451C296.691 148.451 297.541 148.061 298.146 147.279C298.762 146.498 299.069 145.434 299.069 144.086C299.069 142.787 298.732 141.762 298.059 141.01C297.385 140.248 296.457 139.867 295.275 139.867C294.631 139.867 294.084 139.955 293.635 140.131C293.186 140.297 292.697 140.629 292.17 141.127L289.328 140.424ZM305.28 133.773C305.28 132.484 305.695 131.43 306.525 130.609C307.355 129.779 308.444 129.364 309.792 129.364C311.159 129.364 312.253 129.779 313.073 130.609C313.903 131.43 314.318 132.509 314.318 133.847V134.901C314.318 136.181 313.903 137.23 313.073 138.051C312.253 138.871 311.169 139.281 309.821 139.281C308.503 139.281 307.414 138.881 306.555 138.08C305.705 137.27 305.28 136.181 305.28 134.813V133.773ZM307.771 134.901C307.771 135.575 307.956 136.122 308.327 136.542C308.708 136.952 309.206 137.157 309.821 137.157C310.427 137.157 310.915 136.952 311.286 136.542C311.657 136.122 311.843 135.556 311.843 134.843V133.773C311.843 133.1 311.652 132.553 311.271 132.133C310.9 131.713 310.407 131.503 309.792 131.503C309.177 131.503 308.684 131.718 308.312 132.147C307.951 132.567 307.771 133.124 307.771 133.817V134.901ZM315.534 145.771C315.534 144.462 315.959 143.402 316.809 142.592C317.658 141.781 318.742 141.376 320.061 141.376C321.389 141.376 322.473 141.781 323.312 142.592C324.162 143.402 324.587 144.496 324.587 145.873V146.913C324.587 148.183 324.177 149.232 323.356 150.062C322.546 150.883 321.457 151.293 320.09 151.293C318.723 151.293 317.619 150.888 316.779 150.077C315.949 149.257 315.534 148.178 315.534 146.84V145.771ZM318.024 146.913C318.024 147.577 318.215 148.124 318.596 148.554C318.986 148.974 319.484 149.184 320.09 149.184C320.715 149.184 321.203 148.983 321.555 148.583C321.916 148.173 322.097 147.602 322.097 146.869V145.771C322.097 145.087 321.906 144.54 321.525 144.13C321.145 143.72 320.656 143.515 320.061 143.515C319.455 143.515 318.962 143.72 318.581 144.13C318.21 144.54 318.024 145.106 318.024 145.829V146.913ZM310.554 149.403L308.723 148.349L319.138 131.679L320.969 132.733L310.554 149.403Z" fill="black"/>
<path d="M48.0977 149H42.8242L32.5586 132.16V149H27.2852V123.406H32.5586L42.8418 140.281V123.406H48.0977V149ZM61.123 149.352C58.334 149.352 56.0605 148.496 54.3027 146.785C52.5566 145.074 51.6836 142.795 51.6836 139.947V139.455C51.6836 137.545 52.0527 135.84 52.791 134.34C53.5293 132.828 54.5723 131.668 55.9199 130.859C57.2793 130.039 58.8262 129.629 60.5605 129.629C63.1621 129.629 65.207 130.449 66.6953 132.09C68.1953 133.73 68.9453 136.057 68.9453 139.068V141.143H56.834C56.998 142.385 57.4902 143.381 58.3105 144.131C59.1426 144.881 60.1914 145.256 61.457 145.256C63.4141 145.256 64.9434 144.547 66.0449 143.129L68.541 145.924C67.7793 147.002 66.748 147.846 65.4473 148.455C64.1465 149.053 62.7051 149.352 61.123 149.352ZM60.543 133.742C59.5352 133.742 58.7148 134.082 58.082 134.762C57.4609 135.441 57.0625 136.414 56.8867 137.68H63.9531V137.275C63.9297 136.15 63.625 135.283 63.0391 134.674C62.4531 134.053 61.6211 133.742 60.543 133.742ZM77.9277 125.305V129.98H81.1797V133.707H77.9277V143.199C77.9277 143.902 78.0625 144.406 78.332 144.711C78.6016 145.016 79.1172 145.168 79.8789 145.168C80.4414 145.168 80.9395 145.127 81.373 145.045V148.895C80.377 149.199 79.3516 149.352 78.2969 149.352C74.7344 149.352 72.918 147.553 72.8477 143.955V133.707H70.0703V129.98H72.8477V125.305H77.9277ZM100.551 142.092L103.047 129.98H107.951L103.1 149H98.8457L95.2422 137.029L91.6387 149H87.4023L82.5508 129.98H87.4551L89.9336 142.074L93.4141 129.98H97.0879L100.551 142.092ZM109.691 139.314C109.691 137.428 110.055 135.746 110.781 134.27C111.508 132.793 112.551 131.65 113.91 130.842C115.281 130.033 116.869 129.629 118.674 129.629C121.24 129.629 123.332 130.414 124.949 131.984C126.578 133.555 127.486 135.688 127.674 138.383L127.709 139.684C127.709 142.602 126.895 144.945 125.266 146.715C123.637 148.473 121.451 149.352 118.709 149.352C115.967 149.352 113.775 148.473 112.135 146.715C110.506 144.957 109.691 142.566 109.691 139.543V139.314ZM114.771 139.684C114.771 141.488 115.111 142.871 115.791 143.832C116.471 144.781 117.443 145.256 118.709 145.256C119.939 145.256 120.9 144.787 121.592 143.85C122.283 142.9 122.629 141.389 122.629 139.314C122.629 137.545 122.283 136.174 121.592 135.201C120.9 134.229 119.928 133.742 118.674 133.742C117.432 133.742 116.471 134.229 115.791 135.201C115.111 136.162 114.771 137.656 114.771 139.684ZM141.525 134.744C140.834 134.65 140.225 134.604 139.697 134.604C137.775 134.604 136.516 135.254 135.918 136.555V149H130.838V129.98H135.637L135.777 132.248C136.797 130.502 138.209 129.629 140.014 129.629C140.576 129.629 141.104 129.705 141.596 129.857L141.525 134.744ZM150.895 141.371L149.066 143.199V149H143.986V122H149.066V136.959L150.051 135.693L154.92 129.98H161.02L154.146 137.908L161.617 149H155.781L150.895 141.371ZM44.0898 181.666C44.0898 184.713 43.4395 187.092 42.1387 188.803C40.8379 190.502 39.0215 191.352 36.6895 191.352C34.627 191.352 32.9805 190.561 31.75 188.979L31.5215 191H26.9512V164H32.0312V173.686C33.2031 172.314 34.7441 171.629 36.6543 171.629C38.9746 171.629 40.791 172.484 42.1035 174.195C43.4277 175.895 44.0898 178.291 44.0898 181.385V181.666ZM39.0098 181.297C39.0098 179.375 38.7051 177.975 38.0957 177.096C37.4863 176.205 36.5781 175.76 35.3711 175.76C33.7539 175.76 32.6406 176.422 32.0312 177.746V185.252C32.6523 186.588 33.7773 187.256 35.4062 187.256C37.0469 187.256 38.125 186.447 38.6406 184.83C38.8867 184.057 39.0098 182.879 39.0098 181.297ZM46.4453 181.314C46.4453 179.428 46.8086 177.746 47.5352 176.27C48.2617 174.793 49.3047 173.65 50.6641 172.842C52.0352 172.033 53.623 171.629 55.4277 171.629C57.9941 171.629 60.0859 172.414 61.7031 173.984C63.332 175.555 64.2402 177.688 64.4277 180.383L64.4629 181.684C64.4629 184.602 63.6484 186.945 62.0195 188.715C60.3906 190.473 58.2051 191.352 55.4629 191.352C52.7207 191.352 50.5293 190.473 48.8887 188.715C47.2598 186.957 46.4453 184.566 46.4453 181.543V181.314ZM51.5254 181.684C51.5254 183.488 51.8652 184.871 52.5449 185.832C53.2246 186.781 54.1973 187.256 55.4629 187.256C56.6934 187.256 57.6543 186.787 58.3457 185.85C59.0371 184.9 59.3828 183.389 59.3828 181.314C59.3828 179.545 59.0371 178.174 58.3457 177.201C57.6543 176.229 56.6816 175.742 55.4277 175.742C54.1855 175.742 53.2246 176.229 52.5449 177.201C51.8652 178.162 51.5254 179.656 51.5254 181.684ZM66.8008 181.314C66.8008 179.428 67.1641 177.746 67.8906 176.27C68.6172 174.793 69.6602 173.65 71.0195 172.842C72.3906 172.033 73.9785 171.629 75.7832 171.629C78.3496 171.629 80.4414 172.414 82.0586 173.984C83.6875 175.555 84.5957 177.688 84.7832 180.383L84.8184 181.684C84.8184 184.602 84.0039 186.945 82.375 188.715C80.7461 190.473 78.5605 191.352 75.8184 191.352C73.0762 191.352 70.8848 190.473 69.2441 188.715C67.6152 186.957 66.8008 184.566 66.8008 181.543V181.314ZM71.8809 181.684C71.8809 183.488 72.2207 184.871 72.9004 185.832C73.5801 186.781 74.5527 187.256 75.8184 187.256C77.0488 187.256 78.0098 186.787 78.7012 185.85C79.3926 184.9 79.7383 183.389 79.7383 181.314C79.7383 179.545 79.3926 178.174 78.7012 177.201C78.0098 176.229 77.0371 175.742 75.7832 175.742C74.541 175.742 73.5801 176.229 72.9004 177.201C72.2207 178.162 71.8809 179.656 71.8809 181.684ZM98.248 185.744C98.248 185.123 97.9375 184.637 97.3164 184.285C96.707 183.922 95.7227 183.6 94.3633 183.318C89.8398 182.369 87.5781 180.447 87.5781 177.553C87.5781 175.865 88.2754 174.459 89.6699 173.334C91.0762 172.197 92.9102 171.629 95.1719 171.629C97.5859 171.629 99.5137 172.197 100.955 173.334C102.408 174.471 103.135 175.947 103.135 177.764H98.0547C98.0547 177.037 97.8203 176.439 97.3516 175.971C96.8828 175.49 96.1504 175.25 95.1543 175.25C94.2988 175.25 93.6367 175.443 93.168 175.83C92.6992 176.217 92.4648 176.709 92.4648 177.307C92.4648 177.869 92.7285 178.326 93.2559 178.678C93.7949 179.018 94.6973 179.316 95.9629 179.574C97.2285 179.82 98.2949 180.102 99.1621 180.418C101.846 181.402 103.188 183.107 103.188 185.533C103.188 187.268 102.443 188.674 100.955 189.752C99.4668 190.818 97.5449 191.352 95.1895 191.352C93.5957 191.352 92.1777 191.07 90.9355 190.508C89.7051 189.934 88.7383 189.154 88.0352 188.17C87.332 187.174 86.9805 186.102 86.9805 184.953H91.7969C91.8438 185.855 92.1777 186.547 92.7988 187.027C93.4199 187.508 94.252 187.748 95.2949 187.748C96.2676 187.748 97 187.566 97.4922 187.203C97.9961 186.828 98.248 186.342 98.248 185.744ZM112.557 167.305V171.98H115.809V175.707H112.557V185.199C112.557 185.902 112.691 186.406 112.961 186.711C113.23 187.016 113.746 187.168 114.508 187.168C115.07 187.168 115.568 187.127 116.002 187.045V190.895C115.006 191.199 113.98 191.352 112.926 191.352C109.363 191.352 107.547 189.553 107.477 185.955V175.707H104.699V171.98H107.477V167.305H112.557Z" fill="black"/>
<path d="M270.184 242.203L273.875 252.012L277.558 242.203H280.432V255H278.217V250.781L278.437 245.139L274.657 255H273.066L269.296 245.147L269.516 250.781V255H267.301V242.203H270.184ZM290.39 252.021H285.433L284.396 255H282.084L286.918 242.203H288.913L293.756 255H291.436L290.39 252.021ZM286.057 250.228H289.766L287.911 244.919L286.057 250.228ZM298.071 248.268L301.016 242.203H303.477L299.188 250.289V255H296.955V250.289L292.657 242.203H295.127L298.071 248.268Z" fill="#CCCFD3"/>
</svg>
