<svg width="100" height="100" viewBox="0 0 100 100" fill="none" xmlns="http://www.w3.org/2000/svg">
<path fill-rule="evenodd" clip-rule="evenodd" d="M21.6839 39.7784C25.1048 42.8154 23.7808 49.8834 18.7377 55.5128C18.1494 56.1698 17.523 56.7917 16.8617 57.3753H14.7233V41.9625H16.7076V41.4333H9.67285C14.0929 38.1981 18.9784 37.3758 21.6839 39.7784V39.7784ZM16.2387 57.9039C11.6074 61.6802 6.25298 62.7785 3.3711 60.2203C-0.0492782 57.1833 1.27415 50.1148 6.31731 44.4853C7.13383 43.572 8.0249 42.7281 8.9813 41.9625H10.9527V57.3747H9.03421V57.9039H16.2387ZM31.3474 53.0122H27.1851V52.6926H28.4411V44.7671H27.1851V44.4345H31.3474V44.7671H30.0981V52.6926H31.3474V53.0122V53.0122ZM35.6736 53.0122H32.6215V52.7165H33.4941V48.3037H32.6215V48.0079H33.4443C33.6072 48.0079 33.8111 47.9991 34.0529 47.9799C34.2946 47.9607 34.5545 47.9327 34.831 47.8938V49.0492H34.9509C35.1932 48.6528 35.4609 48.3587 35.7545 48.1724C36.0481 47.9862 36.3848 47.8938 36.7661 47.8938C37.2891 47.8938 37.6834 48.0183 37.9495 48.2668C38.2151 48.5174 38.3479 48.8883 38.3479 49.3812V52.716H39.1453V53.0117H36.2012V52.716H36.9664V49.1431C36.9664 48.8344 36.9213 48.6243 36.8315 48.5195C36.7417 48.4121 36.5809 48.3586 36.3516 48.3586C35.9786 48.3586 35.6378 48.5579 35.3291 48.9589C35.0239 49.3432 34.8598 49.8206 34.8642 50.3114V52.716H35.6746V53.0122H35.6736V53.0122ZM41.0928 48.3031H40.2571V48.0074H41.1317V46.6316H41.5821C41.6827 46.6316 41.8005 46.6207 41.9379 46.5974C42.0728 46.5756 42.2295 46.5398 42.4049 46.4946V48.0079H43.6287V48.3037H42.4049V51.9943C42.4049 52.2345 42.45 52.4037 42.5377 52.5048C42.6253 52.605 42.7691 52.6548 42.9709 52.6548C43.1208 52.6548 43.2603 52.5972 43.3911 52.4804C43.5197 52.3668 43.6204 52.2091 43.6909 52.0073L43.9374 52.1017C43.8668 52.4322 43.6847 52.6973 43.3911 52.897C43.0974 53.0957 42.7436 53.1948 42.3302 53.1948C41.8824 53.1948 41.5649 53.1108 41.3766 52.9458C41.1883 52.7808 41.0939 52.496 41.0939 52.0888V48.3031H41.0928ZM49.6031 51.405H49.9117C49.753 51.9938 49.4765 52.4395 49.0822 52.7414C48.69 53.0444 48.1863 53.1943 47.5756 53.1943C46.8727 53.1943 46.2854 52.95 45.8159 52.4628C45.3443 51.9746 45.1088 51.3765 45.1088 50.6693C45.1088 49.9124 45.349 49.2593 45.8309 48.7125C46.3108 48.1662 46.8939 47.8938 47.5756 47.8938C48.2464 47.8938 48.8015 48.1018 49.2451 48.5153C49.6887 48.9288 49.9117 49.4497 49.9117 50.0774V50.191H46.6221V51.7241C46.6221 52.0758 46.7248 52.3585 46.9308 52.5681C47.1347 52.7798 47.4086 52.8851 47.752 52.8851C48.1826 52.8851 48.5665 52.7523 48.9006 52.4851C49.2363 52.2164 49.4697 51.8569 49.6031 51.405V51.405ZM48.4737 49.8336V49.1436C48.4737 48.8219 48.3984 48.5843 48.2485 48.4318C48.0965 48.2798 47.8651 48.2025 47.5497 48.2025C47.241 48.2025 47.0096 48.2819 46.8535 48.4385C46.6994 48.5947 46.6221 48.8307 46.6221 49.1436V49.8336H48.4737V49.8336ZM51.3166 53.0122V52.7165H52.1892V48.3037H51.3166V48.0079H52.1394C52.2987 48.0079 52.5 47.9991 52.7443 47.9799C53.0036 47.9596 53.2621 47.9309 53.5194 47.8938L53.5267 49.1436H53.6268C53.8416 48.7254 54.0916 48.4126 54.3816 48.2051C54.668 47.9977 55.0138 47.8885 55.3673 47.8938C55.6501 47.8938 55.8768 47.969 56.0464 48.1169C56.2156 48.2647 56.3017 48.4666 56.3017 48.7171C56.3017 48.9293 56.242 49.1026 56.1211 49.2313C56.0034 49.362 55.8446 49.4263 55.648 49.4263C55.4099 49.4263 55.2293 49.377 55.1079 49.2764C54.9855 49.1757 54.9253 49.0279 54.9253 48.8307V48.7171C54.9291 48.6505 54.9181 48.5839 54.8932 48.5221C54.8856 48.5033 54.8725 48.4874 54.8557 48.4762C54.8388 48.4651 54.8189 48.4594 54.7988 48.4598C54.503 48.4598 54.2203 48.6528 53.9526 49.0409C53.6896 49.4123 53.5494 49.8568 53.5516 50.3119V52.7165H54.6815V53.0122H51.3166V53.0122ZM60.4805 53.0122H57.4285V52.7165H58.3011V48.3037H57.4285V48.0079H58.2513C58.4142 48.0079 58.6181 47.9991 58.8604 47.9799C59.1026 47.9607 59.361 47.9327 59.6375 47.8938V49.0492H59.7579C60.0001 48.6528 60.2673 48.3587 60.5615 48.1724C60.8556 47.9862 61.1918 47.8938 61.5726 47.8938C62.0955 47.8938 62.4909 48.0183 62.756 48.2668C63.0216 48.5174 63.1544 48.8883 63.1544 49.3812V52.716H63.9518V53.0117H61.0071V52.716H61.7723V49.1431C61.7723 48.8344 61.7277 48.6243 61.6374 48.5195C61.5472 48.4121 61.3863 48.3586 61.157 48.3586C60.784 48.3586 60.4437 48.5579 60.1345 48.9589C59.8232 49.3573 59.6697 49.8097 59.6697 50.3114V52.716H60.48V53.0122H60.4805V53.0122ZM69.6527 51.405H69.9609C69.8027 51.9938 69.5262 52.4395 69.1319 52.7414C68.7397 53.0444 68.2359 53.1943 67.6253 53.1943C66.9224 53.1943 66.3346 52.95 65.8651 52.4628C65.394 51.9746 65.1579 51.3765 65.1579 50.6693C65.1579 49.9124 65.3981 49.2593 65.8806 48.7125C66.361 48.1662 66.9436 47.8938 67.6253 47.8938C68.2961 47.8938 68.8512 48.1018 69.2943 48.5153C69.7378 48.9288 69.9609 49.4497 69.9609 50.0774V50.191H66.6707V51.7241C66.6707 52.0758 66.774 52.3585 66.9799 52.5681C67.1838 52.7798 67.4583 52.8851 67.8007 52.8851C68.2313 52.8851 68.6152 52.7523 68.9498 52.4851C69.286 52.2164 69.5189 51.8569 69.6527 51.405V51.405ZM68.5228 49.8336V49.1436C68.5228 48.8219 68.4476 48.5843 68.2977 48.4318C68.1457 48.2798 67.9138 48.2025 67.5983 48.2025C67.2902 48.2025 67.0583 48.2819 66.9021 48.4385C66.748 48.5947 66.6702 48.8307 66.6702 49.1436V49.8336H68.5228V49.8336ZM75.5042 48.3031H74.6943V48.0074H75.4917C75.6588 48.0074 75.8647 47.9986 76.1106 47.9794C76.355 47.9602 76.6144 47.9322 76.8909 47.8933V52.7025H77.7391V53.0117H76.9163C76.7026 53.0117 76.4816 53.02 76.2497 53.0371C76.0209 53.0542 75.7807 53.0776 75.5301 53.1123V51.9705H75.4165C75.1742 52.3668 74.906 52.6605 74.6119 52.8467C74.3193 53.033 73.9826 53.1253 73.6007 53.1253C73.0736 53.1253 72.6799 53.0029 72.4205 52.7585C72.1611 52.5121 72.0304 52.1432 72.0304 51.6488V51.6125C72.0218 51.5477 72.0175 51.4823 72.0174 51.4169V48.3031H71.1946V48.0074H72.0044C72.1658 48.0074 72.3671 47.9986 72.6114 47.9794C72.8558 47.9602 73.1172 47.9322 73.3937 47.8933V51.5861C73.3937 51.9933 73.4363 52.274 73.5224 52.4312C73.6075 52.5873 73.7574 52.6662 73.9722 52.6662C74.3722 52.6662 74.7291 52.4696 75.0393 52.0774C75.3506 51.682 75.5042 51.226 75.5042 50.7072V48.3031V48.3031ZM79.0039 53.0122V52.7165H79.8755V48.3037H79.0039V48.0079H79.8267C79.985 48.0079 80.1863 47.9991 80.4306 47.9799C80.677 47.9607 80.9344 47.9327 81.2067 47.8938L81.2129 49.1436H81.3141C81.5279 48.7254 81.7789 48.4126 82.0679 48.2051C82.3543 47.9978 82.7001 47.8886 83.0536 47.8938C83.3364 47.8938 83.5641 47.969 83.7337 48.1169C83.9029 48.2647 83.988 48.4666 83.988 48.7171C83.988 48.9293 83.9283 49.1026 83.8085 49.2313C83.6897 49.362 83.5319 49.4263 83.3343 49.4263C83.0962 49.4263 82.9167 49.377 82.7942 49.2764C82.6728 49.1757 82.6116 49.0279 82.6116 48.8307V48.7171C82.6116 48.6289 82.6012 48.5651 82.58 48.5221C82.5724 48.5033 82.5593 48.4874 82.5424 48.4762C82.5256 48.4651 82.5057 48.4594 82.4855 48.4598C82.1898 48.4598 81.9071 48.6528 81.6384 49.0409C81.3761 49.4126 81.2363 49.8569 81.2384 50.3119V52.7165H82.3673V53.0122H79.0039V53.0122ZM86.8537 49.7454V51.3287C86.8537 51.889 86.9409 52.2895 87.1173 52.5277C87.2926 52.7658 87.5821 52.8851 87.9847 52.8851C88.3857 52.8851 88.6747 52.7658 88.8511 52.5277C89.0264 52.2895 89.1146 51.8895 89.1146 51.3287V49.7454C89.1146 49.182 89.0264 48.7809 88.8511 48.5433C88.6747 48.3078 88.3863 48.1895 87.9847 48.1895C87.5826 48.1895 87.2926 48.3078 87.1173 48.5433C86.9409 48.7809 86.8537 49.182 86.8537 49.7454ZM85.3337 50.5428C85.3337 49.8445 85.5993 49.2292 86.129 48.6953C86.6582 48.1615 87.275 47.8938 87.9842 47.8938C88.6913 47.8938 89.3087 48.162 89.8384 48.6953C90.3675 49.2292 90.6336 49.8445 90.6336 50.5428C90.6336 51.2442 90.367 51.8589 89.8384 52.3928C89.3087 52.9256 88.6913 53.1943 87.9842 53.1943C87.275 53.1943 86.6576 52.9256 86.129 52.3928C85.5993 51.8589 85.3337 51.2437 85.3337 50.5428ZM95.0589 53.0122H92.0069V52.7165H92.8795V48.3037H92.0069V48.0079H92.8297C92.9926 48.0079 93.1965 47.9991 93.4387 47.9799C93.681 47.9607 93.9394 47.9327 94.2159 47.8938V49.0492H94.3363C94.5785 48.6528 94.8457 48.3587 95.1399 48.1724C95.434 47.9862 95.7702 47.8938 96.151 47.8938C96.6739 47.8938 97.0692 48.0183 97.3343 48.2668C97.6 48.5174 97.7328 48.8883 97.7328 49.3812V52.716H98.5302V53.0117H95.5855V52.716H96.3507V49.1431C96.3507 48.8344 96.3061 48.6243 96.2158 48.5195C96.1256 48.4121 95.9647 48.3586 95.7354 48.3586C95.3624 48.3586 95.0221 48.5579 94.7129 48.9589C94.4016 49.3573 94.2481 49.8097 94.2481 50.3114V52.716H95.0584V53.0122H95.0589V53.0122ZM29.3552 57.823H27.749V57.7016H28.2248V54.6972H27.749V54.5717H29.35C29.7817 54.5717 30.1054 54.6459 30.3228 54.7948C30.5396 54.9426 30.6475 55.1657 30.6475 55.4645C30.6475 55.7613 30.537 55.9802 30.3155 56.1224C30.0945 56.265 29.7516 56.3361 29.2888 56.3361H28.8535V57.7021H29.3557V57.823H29.3552V57.823ZM28.8535 56.2178H29.1368C29.4408 56.2178 29.6535 56.1592 29.7739 56.0435C29.8948 55.9257 29.9549 55.7213 29.9549 55.4272C29.9549 55.1548 29.9062 54.9649 29.8097 54.8576C29.7127 54.7502 29.528 54.6962 29.253 54.6962H28.853V56.2178H28.8535V56.2178ZM31.7022 57.823V57.7104H32.0327V54.6734H31.7022V54.5608H32.014C32.0758 54.5608 32.1531 54.5567 32.2454 54.5499C32.3393 54.5416 32.4363 54.5318 32.5395 54.5193V56.3148H32.5707C32.7346 56.1307 32.8622 56.0108 32.9556 55.9589C33.048 55.9081 33.1554 55.8822 33.2778 55.8822C33.4744 55.8822 33.6223 55.9299 33.7224 56.0238C33.8225 56.1177 33.8728 56.2588 33.8728 56.4451V57.7094H34.1753V57.8219H33.0594V57.7094H33.3494V56.2806C33.3512 56.2501 33.3466 56.2195 33.3361 56.1907C33.3256 56.162 33.3093 56.1357 33.2882 56.1136C33.2658 56.0926 33.2395 56.0764 33.2106 56.0659C33.1818 56.0555 33.1512 56.051 33.1206 56.0529C32.9795 56.0529 32.8498 56.1296 32.731 56.2806C32.6117 56.4336 32.5525 56.6059 32.5525 56.7973V57.7094H32.8596V57.8219H31.7022V57.823V57.823ZM36.4071 56.8419C36.1706 56.845 35.9947 56.8845 35.88 56.9587C35.7643 57.0328 35.7068 57.1459 35.7068 57.2959C35.7068 57.4053 35.7363 57.4904 35.7939 57.5511C35.8515 57.6108 35.9335 57.6414 36.0383 57.6414C36.0893 57.6422 36.1399 57.6313 36.1861 57.6095C36.2324 57.5877 36.273 57.5557 36.3049 57.5158C36.3763 57.4263 36.4135 57.3143 36.4097 57.1999L36.4071 56.8419V56.8419ZM36.4237 57.575H36.3968C36.3086 57.6813 36.2084 57.7612 36.0969 57.8131C35.9806 57.867 35.8536 57.8939 35.7254 57.892C35.5574 57.892 35.4297 57.8484 35.3436 57.7633C35.257 57.6772 35.2139 57.5527 35.2139 57.3893C35.2139 57.202 35.3083 57.0469 35.4972 56.9244C35.6855 56.802 35.9247 56.7403 36.2136 56.7403H36.4082V56.4425C36.4082 56.2521 36.3864 56.1312 36.3428 56.0809C36.2997 56.029 36.2198 56.0041 36.1062 56.0041C35.9999 56.0041 35.9112 56.0181 35.8406 56.0456C35.7701 56.0741 35.7343 56.1052 35.7343 56.14C35.7343 56.1452 35.7477 56.1717 35.7758 56.2189C35.8031 56.263 35.8178 56.3138 35.8183 56.3657C35.8194 56.3946 35.8143 56.4233 35.8034 56.4501C35.7925 56.4768 35.776 56.5009 35.755 56.5208C35.7328 56.5411 35.7068 56.5569 35.6785 56.5671C35.6502 56.5774 35.6201 56.5819 35.59 56.5805C35.5153 56.5805 35.4583 56.5613 35.4183 56.5208C35.3784 56.4814 35.3592 56.4253 35.3592 56.3527C35.3592 56.2209 35.4308 56.1094 35.5755 56.0191C35.7202 55.9289 35.9039 55.8832 36.1254 55.8832C36.2634 55.8832 36.3895 55.8951 36.5026 55.9195C36.6162 55.9449 36.7034 55.9771 36.763 56.0186C36.813 56.0496 36.8517 56.0958 36.8735 56.1504C36.8938 56.2023 36.9036 56.3065 36.9036 56.4627V57.5589C36.9036 57.5854 36.9171 57.6108 36.9451 57.6331C36.9731 57.6554 37.0037 57.6663 37.0369 57.6663C37.0631 57.6639 37.088 57.654 37.1085 57.6378C37.1385 57.6154 37.165 57.5888 37.1874 57.5589L37.2465 57.6227C37.2017 57.7057 37.1342 57.7742 37.052 57.8204C36.9686 57.8685 36.8738 57.8934 36.7775 57.8925C36.6949 57.8959 36.614 57.8685 36.5503 57.8157C36.4932 57.7623 36.4507 57.6834 36.4237 57.575ZM38.2722 57.823V57.7104H38.6032V56.0373H38.2722V55.9247H38.5845C38.6447 55.9247 38.7209 55.9216 38.8133 55.9143C38.9067 55.9071 39.0042 55.8962 39.1074 55.8822L39.1095 56.3553H39.1479C39.2293 56.1971 39.3243 56.0788 39.4338 55.9994C39.5427 55.9206 39.6677 55.8816 39.8078 55.8816C39.9147 55.8816 40.0008 55.9102 40.0651 55.9657C40.0971 55.9941 40.1225 56.0293 40.1392 56.0687C40.156 56.108 40.1638 56.1507 40.1621 56.1934C40.1654 56.2647 40.1409 56.3345 40.0936 56.388C40.071 56.4127 40.0432 56.4322 40.0121 56.445C39.9811 56.4578 39.9477 56.4637 39.9141 56.4622C39.8239 56.4622 39.7554 56.444 39.7092 56.4056C39.6631 56.3672 39.6402 56.3112 39.6402 56.2365V56.194C39.6416 56.1686 39.6374 56.1433 39.6278 56.1198C39.6205 56.1047 39.6086 56.0964 39.5925 56.0964C39.4804 56.0964 39.373 56.1696 39.2714 56.3164C39.1721 56.4573 39.1192 56.6255 39.1199 56.7978V57.7099H39.5479V57.8225H38.2722V57.823V57.823ZM42.2482 57.7104V57.823H41.1421V57.7104H41.4674V56.0373H41.1421V55.9247H41.4534C41.5157 55.9247 41.5924 55.9216 41.6848 55.9143C41.7766 55.9071 41.8747 55.8962 41.9795 55.8822V56.32H42.0251C42.1102 56.1774 42.2098 56.0689 42.3229 55.9947C42.4365 55.9195 42.5579 55.8822 42.686 55.8822C42.8173 55.8822 42.9314 55.9216 43.0264 56.0025C43.1222 56.0832 43.1856 56.1958 43.2048 56.3195H43.2479C43.3215 56.1899 43.4235 56.0787 43.5462 55.9942C43.6598 55.919 43.7812 55.8816 43.9094 55.8816C44.092 55.8816 44.2253 55.9335 44.3083 56.0357C44.3918 56.1379 44.4333 56.3024 44.4333 56.5291V57.7094H44.7V57.8219H43.6577V57.7094H43.9166V56.4124C43.9166 56.292 43.9016 56.2075 43.8715 56.1613C43.8414 56.1151 43.7916 56.0912 43.7221 56.0912C43.5887 56.0912 43.4694 56.1665 43.3636 56.3174C43.2584 56.4679 43.203 56.6475 43.2054 56.831V57.7094H43.4767V57.8219H42.4344V57.7094H42.6912V56.4124C42.6912 56.2868 42.6757 56.2028 42.6451 56.1582C42.6139 56.1125 42.56 56.0912 42.4822 56.0912C42.3571 56.0912 42.2414 56.1665 42.1366 56.3185C42.0324 56.4689 41.9776 56.648 41.98 56.831V57.7094H42.2482V57.7104V57.7104ZM46.9313 56.8419C46.6947 56.845 46.5183 56.8845 46.4037 56.9587C46.2885 57.0328 46.2309 57.1459 46.2309 57.2959C46.2309 57.4053 46.26 57.4904 46.3176 57.5511C46.3752 57.6108 46.4576 57.6414 46.5624 57.6414C46.6135 57.6422 46.6641 57.6313 46.7103 57.6095C46.7565 57.5877 46.7972 57.5557 46.8291 57.5158C46.9005 57.4263 46.9376 57.3143 46.9339 57.1999L46.9313 56.8419V56.8419ZM46.9484 57.575H46.9214C46.8333 57.6813 46.7331 57.7612 46.6216 57.8131C46.5052 57.8669 46.3783 57.8939 46.2501 57.892C46.082 57.892 45.9544 57.8484 45.8683 57.7633C45.7817 57.6772 45.7386 57.5527 45.7386 57.3893C45.7386 57.202 45.833 57.0469 46.0219 56.9244C46.2102 56.802 46.4493 56.7403 46.7383 56.7403H46.9329V56.4425C46.9329 56.2521 46.9111 56.1312 46.8675 56.0809C46.8244 56.029 46.7445 56.0041 46.6309 56.0041C46.5246 56.0041 46.4359 56.0181 46.3653 56.0456C46.2942 56.0741 46.2589 56.1052 46.2589 56.14C46.2589 56.1452 46.2724 56.1717 46.3005 56.2189C46.3277 56.263 46.3425 56.3138 46.343 56.3657C46.3441 56.3946 46.339 56.4233 46.3281 56.4501C46.3171 56.4768 46.3007 56.5009 46.2797 56.5208C46.2575 56.5411 46.2315 56.5569 46.2032 56.5671C46.1749 56.5774 46.1448 56.5819 46.1147 56.5805C46.04 56.5805 45.9835 56.5613 45.9435 56.5208C45.9036 56.4814 45.8844 56.4253 45.8844 56.3527C45.8844 56.2209 45.956 56.1094 46.1007 56.0191C46.2455 55.9289 46.4286 55.8832 46.6506 55.8832C46.7886 55.8832 46.9147 55.8951 47.0278 55.9195C47.1414 55.9449 47.2286 55.9771 47.2882 56.0186C47.3382 56.0496 47.3769 56.0958 47.3987 56.1504C47.419 56.2023 47.4288 56.3065 47.4288 56.4627V57.5589C47.4288 57.5854 47.4428 57.6108 47.4703 57.6331C47.4978 57.6554 47.5284 57.6663 47.5622 57.6663C47.5883 57.6639 47.6132 57.654 47.6337 57.6378C47.6637 57.6154 47.6902 57.5888 47.7126 57.5589L47.7723 57.6227C47.7274 57.7057 47.66 57.7742 47.5777 57.8204C47.4947 57.8681 47.4034 57.8925 47.3033 57.8925C47.2206 57.8959 47.1397 57.8685 47.076 57.8157C47.0174 57.7623 46.9754 57.6834 46.9484 57.575ZM50.5151 57.2129H50.6339C50.5774 57.4349 50.4746 57.604 50.3278 57.7197C50.181 57.8344 49.9932 57.892 49.7655 57.892C49.5004 57.892 49.2804 57.7986 49.1061 57.6144C48.9312 57.4302 48.8446 57.1999 48.8446 56.9255C48.8446 56.6266 48.9395 56.3781 49.1305 56.1794C49.3203 55.9818 49.5616 55.8827 49.8536 55.8827C50.0679 55.8827 50.2391 55.9304 50.3683 56.0233C50.4959 56.1167 50.5608 56.2412 50.5608 56.3994C50.5622 56.4336 50.5569 56.4678 50.545 56.5C50.5332 56.5321 50.5151 56.5616 50.4918 56.5867C50.4675 56.611 50.4385 56.6299 50.4065 56.6423C50.3745 56.6548 50.3403 56.6604 50.306 56.6588C50.2346 56.662 50.1649 56.6368 50.112 56.5888C50.0878 56.5648 50.0689 56.536 50.0564 56.5043C50.0439 56.4726 50.0381 56.4386 50.0394 56.4046C50.0394 56.3346 50.0596 56.2728 50.1021 56.2183C50.1258 56.1913 50.147 56.1621 50.1654 56.1312C50.1654 56.0876 50.1395 56.0544 50.0881 56.0311C50.0194 56.0046 49.9459 55.9926 49.8723 55.9958C49.7105 55.9958 49.5937 56.0456 49.5206 56.1436C49.4474 56.2427 49.4111 56.403 49.4111 56.623V57.3353C49.4111 57.479 49.4485 57.5895 49.5232 57.6637C49.5984 57.7379 49.7073 57.7752 49.8542 57.7752C50.0036 57.7752 50.1411 57.7213 50.2661 57.6149C50.3896 57.5081 50.4736 57.3732 50.5151 57.2129V57.2129ZM53.4048 57.2129H53.5215C53.4618 57.437 53.3565 57.6051 53.2076 57.7208C53.0587 57.8354 52.8683 57.892 52.6359 57.892C52.3693 57.892 52.1467 57.7986 51.9693 57.6144C51.7898 57.4302 51.7005 57.203 51.7005 56.9343C51.7005 56.6474 51.7918 56.4004 51.9739 56.1924C52.1566 55.9859 52.377 55.8822 52.6354 55.8822C52.8896 55.8822 53.1002 55.961 53.2688 56.1182C53.4369 56.2744 53.521 56.472 53.521 56.7102V56.7527H52.2738V57.3343C52.2738 57.4671 52.3132 57.5745 52.3916 57.6544C52.4683 57.7343 52.5731 57.7737 52.7028 57.7737C52.8657 57.7737 53.011 57.7239 53.1386 57.6217C53.2652 57.521 53.3544 57.3841 53.4048 57.2129V57.2129ZM52.9762 56.6183V56.3558C52.9762 56.2344 52.9477 56.1442 52.8912 56.0861C52.8336 56.0285 52.7454 55.9989 52.6255 55.9989C52.5088 55.9989 52.4206 56.0295 52.362 56.0892C52.3034 56.1478 52.2738 56.237 52.2738 56.3558V56.6183H52.9762ZM56.1751 56.0378H55.868V55.9252H56.171C56.2337 55.9252 56.3115 55.9221 56.4049 55.9149C56.4983 55.9076 56.5964 55.8967 56.7006 55.8827V57.7057H57.0228V57.8235H56.7105C56.6285 57.8235 56.5455 57.8266 56.4573 57.8328C56.3663 57.8397 56.2755 57.8492 56.185 57.8614V57.4287H56.1414C56.0501 57.5786 55.9489 57.6902 55.8374 57.7612C55.7258 57.8323 55.5982 57.8665 55.4535 57.8665C55.2537 57.8665 55.1048 57.8199 55.0068 57.7275C54.9087 57.6341 54.8589 57.4946 54.8589 57.3068V57.2928C54.8553 57.2682 54.8535 57.2434 54.8537 57.2186V56.0383H54.5414V55.9257H54.8486C54.9093 55.9257 54.9866 55.9226 55.0784 55.9154C55.1702 55.9081 55.2698 55.8972 55.3751 55.8832V57.2824C55.3751 57.4375 55.3912 57.5439 55.4239 57.6025C55.4561 57.6621 55.5131 57.6917 55.5941 57.6917C55.7461 57.6917 55.8809 57.6175 55.9982 57.4686C56.117 57.3187 56.1746 57.1465 56.1746 56.9498V56.0378H56.1751V56.0378ZM58.3343 56.0378H58.0184V55.9252H58.3499V55.4044H58.52C58.5584 55.4044 58.603 55.4002 58.6549 55.3914C58.7068 55.3831 58.7654 55.3691 58.8323 55.352V55.9252H59.2967V56.0378H58.8323V57.437C58.8323 57.5283 58.8495 57.5921 58.8832 57.6305C58.9164 57.6679 58.9703 57.687 59.0471 57.687C59.1066 57.6857 59.1634 57.6622 59.2064 57.6212C59.259 57.5721 59.2982 57.5102 59.32 57.4417L59.4134 57.4769C59.4007 57.5383 59.3758 57.5965 59.3404 57.6481C59.3049 57.6998 59.2596 57.7439 59.2069 57.7778C59.0876 57.8559 58.9473 57.8955 58.8048 57.8914C58.6347 57.8914 58.5148 57.8593 58.4433 57.797C58.3722 57.7343 58.3359 57.6258 58.3359 57.4717V56.0378H58.3343V56.0378ZM61.5747 57.823H60.3316V57.7104H60.7057V56.0373H60.3887V55.9247H60.6969C60.7586 55.9247 60.8359 55.9216 60.9288 55.9143C61.0216 55.9071 61.1192 55.8962 61.2224 55.8822L61.2245 57.7099H61.5752V57.823H61.5747V57.823ZM60.644 54.9515C60.6433 54.9149 60.6499 54.8785 60.6635 54.8445C60.6772 54.8105 60.6975 54.7796 60.7233 54.7537C60.7491 54.7277 60.7798 54.7071 60.8137 54.6933C60.8475 54.6794 60.8839 54.6724 60.9205 54.6729C60.9973 54.6729 61.0631 54.7004 61.1171 54.7538C61.1716 54.8078 61.1991 54.8731 61.1991 54.9515C61.1991 55.0298 61.1716 55.0941 61.1171 55.1481C61.0914 55.174 61.0607 55.1944 61.027 55.2081C60.9932 55.2219 60.9569 55.2286 60.9205 55.228C60.8839 55.2288 60.8476 55.2221 60.8137 55.2085C60.7798 55.1949 60.749 55.1746 60.7232 55.1487C60.6974 55.1229 60.677 55.0921 60.6634 55.0582C60.6498 55.0243 60.6432 54.988 60.644 54.9515ZM64.2558 57.2129H64.3746C64.317 57.4349 64.2143 57.604 64.0685 57.7197C63.9217 57.8344 63.7339 57.892 63.5061 57.892C63.2405 57.892 63.0205 57.7986 62.8467 57.6144C62.6714 57.4302 62.5842 57.1999 62.5842 56.9255C62.5842 56.6266 62.6797 56.3781 62.8711 56.1794C63.0605 55.9818 63.3017 55.8827 63.5938 55.8827C63.8086 55.8827 63.9798 55.9304 64.1084 56.0233C64.2361 56.1167 64.3009 56.2412 64.3009 56.3994C64.3034 56.4337 64.2985 56.4681 64.2867 56.5003C64.2749 56.5325 64.2563 56.5619 64.2323 56.5864C64.2083 56.611 64.1793 56.6301 64.1473 56.6426C64.1153 56.655 64.081 56.6606 64.0467 56.6588C63.9752 56.6619 63.9053 56.6368 63.8522 56.5888C63.8281 56.5647 63.8092 56.5359 63.7968 56.5042C63.7844 56.4725 63.7787 56.4386 63.78 56.4046C63.78 56.3346 63.8003 56.2728 63.8418 56.2183C63.8843 56.1644 63.9056 56.1353 63.9056 56.1312C63.9056 56.0876 63.8791 56.0544 63.8288 56.0311C63.7601 56.0046 63.6866 55.9926 63.613 55.9958C63.4511 55.9958 63.3344 56.0456 63.2602 56.1436C63.1871 56.2427 63.1507 56.403 63.1507 56.623V57.3353C63.1507 57.479 63.1881 57.5895 63.2633 57.6637C63.3386 57.7379 63.4475 57.7752 63.5938 57.7752C63.7437 57.7752 63.8807 57.7213 64.0062 57.6149C64.1291 57.5101 64.2163 57.3695 64.2558 57.2129V57.2129ZM66.6635 56.8419C66.4274 56.845 66.251 56.8845 66.1364 56.9587C66.0207 57.0328 65.9631 57.1459 65.9631 57.2959C65.9631 57.4053 65.9927 57.4904 66.0503 57.5511C66.1079 57.6108 66.1903 57.6414 66.2946 57.6414C66.3457 57.6422 66.3963 57.6313 66.4425 57.6095C66.4887 57.5877 66.5293 57.5557 66.5613 57.5158C66.6327 57.4264 66.6697 57.3143 66.6656 57.1999L66.6635 56.8419V56.8419ZM66.6806 57.575H66.6531C66.5649 57.6813 66.4648 57.7612 66.3532 57.8131C66.2371 57.8671 66.1103 57.894 65.9823 57.892C65.8142 57.892 65.6866 57.8484 65.6005 57.7633C65.5133 57.6772 65.4708 57.5527 65.4708 57.3893C65.4708 57.202 65.5652 57.0469 65.7546 56.9244C65.9429 56.802 66.182 56.7403 66.471 56.7403H66.6656V56.4425C66.6656 56.2521 66.6443 56.1312 66.5997 56.0809C66.5571 56.029 66.4772 56.0041 66.3636 56.0041C66.2573 56.0041 66.1691 56.0181 66.098 56.0456C66.0269 56.0741 65.9916 56.1052 65.9916 56.14C65.9916 56.1452 66.0057 56.1717 66.0331 56.2189C66.0617 56.2666 66.0747 56.3164 66.0747 56.3657C66.0759 56.3945 66.071 56.4233 66.0601 56.4501C66.0493 56.4768 66.0329 56.501 66.0119 56.5208C65.9897 56.5412 65.9637 56.557 65.9354 56.5672C65.9071 56.5774 65.877 56.5819 65.8469 56.5805C65.7717 56.5805 65.7151 56.5613 65.6757 56.5208C65.655 56.4982 65.639 56.4717 65.6287 56.4428C65.6185 56.414 65.6142 56.3833 65.616 56.3527C65.616 56.2209 65.6882 56.1094 65.8329 56.0191C65.9766 55.9289 66.1613 55.8832 66.3833 55.8832C66.5213 55.8832 66.6469 55.8951 66.7605 55.9195C66.8741 55.9449 66.9613 55.9771 67.0209 56.0186C67.0754 56.0549 67.1122 56.0985 67.1314 56.1504C67.1517 56.2023 67.162 56.3065 67.162 56.4627V57.5589C67.162 57.5854 67.175 57.6108 67.2025 57.6331C67.2285 57.6545 67.2611 57.6663 67.2948 57.6663C67.3161 57.6663 67.3395 57.6559 67.367 57.6378C67.3967 57.6155 67.4229 57.5889 67.4448 57.5589L67.5044 57.6227C67.4595 57.7056 67.392 57.7741 67.3099 57.8204C67.2265 57.8685 67.1317 57.8934 67.0354 57.8925C66.9528 57.8958 66.8719 57.8685 66.8082 57.8157C66.7496 57.7623 66.7071 57.6834 66.6806 57.575V57.575ZM68.8237 54.6739H68.4497V54.5613H68.8133C68.8751 54.5613 68.9534 54.5572 69.0473 54.5504C69.1407 54.5421 69.2388 54.5323 69.342 54.5198V57.7104H69.6927V57.823H68.4497V57.7104H68.8237V54.6739V54.6739ZM70.8008 57.8463H70.7583V57.1439H70.8942C70.9238 57.3353 70.9917 57.4883 71.096 57.5999C71.1427 57.6531 71.2002 57.6957 71.2647 57.7247C71.3293 57.7537 71.3993 57.7685 71.4701 57.768C71.6101 57.768 71.7201 57.7358 71.8037 57.6704C71.8434 57.6404 71.8754 57.6013 71.8969 57.5563C71.9184 57.5114 71.9288 57.4619 71.9271 57.4121C71.9292 57.3744 71.9221 57.3368 71.9064 57.3026C71.8906 57.2683 71.8668 57.2384 71.8369 57.2155C71.7762 57.1729 71.6719 57.1402 71.522 57.12C71.2444 57.0837 71.0519 57.0168 70.9445 56.9203C70.8361 56.8248 70.7827 56.6832 70.7827 56.4959C70.7827 56.3107 70.8382 56.1613 70.9508 56.0503C71.0623 55.9377 71.2122 55.8822 71.4016 55.8822C71.4815 55.8822 71.5588 55.8951 71.6304 55.9206C71.702 55.946 71.7793 55.9864 71.8581 56.042L71.9463 55.9346H72.0101V56.4674H71.8986C71.8732 56.3216 71.8156 56.2059 71.7264 56.1208C71.6407 56.0378 71.5255 55.9923 71.4063 55.9942C71.2755 55.9942 71.1764 56.0228 71.1064 56.0793C71.0364 56.1369 71.0011 56.2183 71.0011 56.3247C71.0011 56.444 71.1147 56.5192 71.3393 56.5525C71.4395 56.5675 71.5178 56.581 71.5775 56.5929C71.772 56.6313 71.9147 56.7034 72.0029 56.8087C72.0911 56.914 72.1367 57.0629 72.1367 57.2554C72.1367 57.4531 72.0781 57.6092 71.9603 57.7213C71.8426 57.8333 71.6817 57.8904 71.4747 57.8904C71.3814 57.8904 71.2952 57.8754 71.2195 57.8468C71.1385 57.8152 71.0632 57.7707 70.9964 57.7151L70.8008 57.8463V57.8463ZM73.3937 58.6084L73.3227 58.515C73.4705 58.3895 73.5779 58.2707 73.6448 58.1581C73.7128 58.0455 73.746 57.9293 73.746 57.8084C73.7477 57.762 73.7398 57.7157 73.7227 57.6725C73.7066 57.6393 73.6853 57.6217 73.6588 57.6217C73.6438 57.6217 73.6142 57.6653 73.5675 57.7514C73.5208 57.8385 73.4472 57.8811 73.3413 57.8811C73.306 57.8824 73.2708 57.8762 73.238 57.863C73.2052 57.8498 73.1755 57.8298 73.151 57.8043C73.103 57.7465 73.0784 57.6728 73.0819 57.5978C73.0819 57.4894 73.1136 57.4012 73.1764 57.3353C73.2085 57.3022 73.2472 57.2764 73.2901 57.2595C73.3329 57.2426 73.3789 57.235 73.4249 57.2373C73.4906 57.236 73.5556 57.2498 73.6152 57.2776C73.6747 57.3054 73.7271 57.3464 73.7683 57.3976C73.8607 57.505 73.9063 57.643 73.9063 57.8131C73.9063 57.962 73.8617 58.1057 73.7735 58.2447C73.6749 58.3921 73.5453 58.5163 73.3937 58.6084V58.6084ZM77.9077 57.823H76.3301V57.7016H76.8063V54.6972H76.3301V54.5712H77.9077V54.6972H77.4346V57.7016H77.9077V57.823ZM80.1001 57.823H78.9438V57.7104H79.2742V56.0373H78.9438V55.9247H79.255C79.3168 55.9247 79.3941 55.9216 79.4859 55.9143C79.5777 55.9071 79.6763 55.8962 79.7806 55.8822V56.32H79.8262C79.9186 56.1701 80.0197 56.0586 80.1313 55.9875C80.2418 55.9164 80.3694 55.8822 80.5141 55.8822C80.7128 55.8822 80.8617 55.9299 80.9629 56.0238C81.063 56.1182 81.1139 56.2588 81.1139 56.4451V57.7094H81.4158V57.8219H80.2994V57.7094H80.5904V56.3548C80.5904 56.2381 80.5733 56.1582 80.5385 56.1187C80.5043 56.0783 80.4431 56.058 80.3569 56.058C80.2153 56.058 80.0867 56.1338 79.9689 56.2853C79.8511 56.4373 79.7925 56.6085 79.7925 56.7978V57.7099H80.0996V57.823H80.1001V57.823ZM84.1451 57.2129H84.2639C84.2074 57.4349 84.1047 57.604 83.9589 57.7197C83.8121 57.8344 83.6238 57.892 83.3955 57.892C83.1309 57.892 82.9099 57.7986 82.7361 57.6144C82.5623 57.4302 82.4746 57.1999 82.4746 56.9255C82.4746 56.6266 82.5701 56.3781 82.7605 56.1794C82.9509 55.9818 83.1921 55.8827 83.4842 55.8827C83.698 55.8827 83.8702 55.9304 83.9978 56.0233C84.1265 56.1167 84.1903 56.2412 84.1903 56.3994C84.192 56.4337 84.1868 56.4679 84.1749 56.5001C84.1631 56.5323 84.1448 56.5617 84.1213 56.5867C84.0971 56.6109 84.0682 56.6299 84.0363 56.6423C84.0044 56.6547 83.9703 56.6603 83.9361 56.6588C83.8649 56.6619 83.7953 56.6368 83.7426 56.5888C83.7183 56.5648 83.6993 56.536 83.6867 56.5043C83.6741 56.4726 83.6682 56.4387 83.6694 56.4046C83.6694 56.3346 83.6896 56.2728 83.7322 56.2183C83.7747 56.1644 83.796 56.1353 83.796 56.1312C83.796 56.0876 83.7695 56.0544 83.7182 56.0311C83.6668 56.0077 83.5957 55.9958 83.5024 55.9958C83.341 55.9958 83.2238 56.0456 83.1506 56.1436C83.0775 56.2427 83.0412 56.403 83.0412 56.623V57.3353C83.0412 57.479 83.0785 57.5895 83.1527 57.6637C83.2279 57.7379 83.3369 57.7752 83.4842 57.7752C83.6331 57.7752 83.7711 57.7213 83.8956 57.6149C84.0206 57.5081 84.1036 57.3732 84.1451 57.2129V57.2129ZM85.5293 57.5698C85.5293 57.658 85.4976 57.7327 85.4349 57.797C85.4055 57.8273 85.3703 57.8514 85.3315 57.8678C85.2926 57.8842 85.2508 57.8926 85.2087 57.8925C85.1661 57.8934 85.1238 57.8855 85.0844 57.8693C85.045 57.853 85.0094 57.8288 84.9799 57.7981C84.9498 57.7683 84.926 57.7328 84.91 57.6937C84.8939 57.6546 84.8859 57.6126 84.8865 57.5703C84.8865 57.48 84.9181 57.4043 84.9799 57.3415C85.0094 57.3108 85.0449 57.2865 85.0843 57.2702C85.1237 57.254 85.1661 57.2461 85.2087 57.2471C85.2969 57.2471 85.3726 57.2788 85.4349 57.3426C85.4654 57.3719 85.4896 57.4072 85.5058 57.4463C85.5221 57.4854 85.5301 57.5275 85.5293 57.5698Z" fill="black"/>
</svg>
