<svg width="100" height="100" viewBox="0 0 100 100" fill="none" xmlns="http://www.w3.org/2000/svg">
<path fill-rule="evenodd" clip-rule="evenodd" d="M5.61598 54.5856C5.61598 54.5856 6.72515 52.541 7.99411 50.8352C9.25426 49.1419 10.6747 47.7874 10.6747 47.7874C10.6747 47.7874 12.4998 45.9622 14.2409 47.7874C15.983 49.6114 14.3239 51.4345 14.3239 51.4345C14.3239 51.4345 12.7504 52.7698 10.8869 53.9138C9.10329 55.0079 7.02605 55.9132 7.02605 55.9132C7.02605 55.9132 6.28003 56.4927 5.69898 55.9132C5.11846 55.3321 5.61598 54.5856 5.61598 54.5856Z" fill="black"/>
<path fill-rule="evenodd" clip-rule="evenodd" d="M4.86991 52.7627C4.86991 52.7627 6.38685 49.7614 7.98732 48.0821C9.77611 46.2061 11.6702 45.6297 11.6702 45.6297C11.6702 45.6297 13.4896 44.8889 15.2317 46.381C16.9733 47.873 16.6459 50.109 16.6459 50.109C16.6459 50.109 16.2241 52.1344 14.3461 53.8703C12.3701 55.6964 8.93359 57.2393 8.93359 57.2393C8.93359 57.2393 15.5684 58.7319 18.8025 53.5917C22.0367 48.4494 17.3095 44.0542 17.3095 44.0542C17.3095 44.0542 11.5052 40.158 7.1915 44.9672C2.87932 49.776 4.86991 52.7627 4.86991 52.7627V52.7627Z" fill="black"/>
<path fill-rule="evenodd" clip-rule="evenodd" d="M29.335 42.5616H25.1058L21.9542 56.3283H30.9111L31.5746 52.4311H27.3449L29.335 42.5616V42.5616ZM42.5211 42.7286C36.3013 41.4846 33.6477 47.5368 33.6477 47.5368C33.6477 47.5368 29.8325 55.5807 36.5503 56.5758C43.2681 57.5718 46.0053 50.6875 46.0053 50.6875C46.0053 50.6875 48.7414 43.9717 42.5211 42.7286V42.7286ZM41.9406 49.7759C41.9406 49.7759 40.697 52.5945 38.2089 52.3476C35.7208 52.0986 37.2963 48.9485 37.2963 48.9485C37.2963 48.9485 38.7064 45.9628 40.863 46.5428C43.0186 47.1228 41.9406 49.7759 41.9406 49.7759ZM48.4109 42.7286H53.3856L54.2976 50.5225L58.1128 42.6456H62.508L54.4636 56.4928H50.898L48.4109 42.7286V42.7286ZM69.9718 42.8111H64.6651L57.2827 56.4103H62.0094L62.9225 54.5011H66.7382L67.1517 56.6593H71.5474L69.9718 42.8111ZM64.0005 51.2701L66.3232 47.0393L66.7387 51.2701H64.0005ZM72.792 42.8111H82.9089L81.9144 46.3763H79.1783L76.8567 56.5758H72.5435L74.9501 46.1278H71.8799L72.792 42.8111V42.8111ZM91.5058 42.7286C85.2855 41.4846 82.6308 47.5368 82.6308 47.5368C82.6308 47.5368 78.8167 55.5807 85.535 56.5758C92.2528 57.5718 94.9889 50.6875 94.9889 50.6875C94.9889 50.6875 97.725 43.9717 91.5058 42.7286V42.7286ZM90.9242 49.7759C90.9242 49.7759 89.6817 52.5945 87.1946 52.3476C84.7049 52.0986 86.2805 48.9485 86.2805 48.9485C86.2805 48.9485 87.6911 45.9628 89.8472 46.5428C92.0033 47.1228 90.9242 49.7759 90.9242 49.7759Z" fill="black"/>
</svg>
