<svg width="100" height="100" viewBox="0 0 100 100" fill="none" xmlns="http://www.w3.org/2000/svg">
<g clip-path="url(#clip0_2:74)">
<path d="M56.2993 45.6785C54.2586 45.5149 52.2583 45.9257 50.4827 46.8462L42.9996 38.0591C43.6667 37.8703 44.3691 37.7986 45.0813 37.8548C46.6512 37.9809 48.0783 38.7102 49.0995 39.9095C49.9772 40.9408 51.5257 41.0646 52.5568 40.1866C53.5881 39.3087 53.7122 37.7606 52.8339 36.7294C50.9634 34.5327 48.3493 33.196 45.4732 32.9655C43.43 32.8007 41.4308 33.212 39.6559 34.1326L38.5562 32.8412C37.6777 31.8099 36.1302 31.6858 35.0989 32.564C34.0676 33.4423 33.9435 34.9903 34.8218 36.0213L35.9242 37.3155C33.0089 41.2616 33.0724 46.844 36.3869 50.7358C38.2575 52.9325 40.8716 54.2691 43.7476 54.4997C45.7903 54.664 47.7896 54.253 49.5645 53.3325L57.0478 62.1196C56.3812 62.3082 55.6793 62.3796 54.9661 62.3234C53.396 62.1973 51.9689 61.468 50.9477 60.2687C50.0695 59.2374 48.5214 59.1133 47.4904 59.9916C46.4591 60.8698 46.335 62.4178 47.2133 63.4489C49.084 65.6456 51.6982 66.9822 54.5742 67.2127C54.8688 67.2365 55.1621 67.2483 55.4547 67.2483C57.1891 67.2483 58.873 66.8343 60.392 66.0468L61.4912 67.3375C61.9766 67.9073 62.6657 68.2001 63.3596 68.2001C63.9217 68.2001 64.487 68.0078 64.9485 67.6147C65.9798 66.7364 66.1039 65.1884 65.2257 64.1574L64.1255 62.8654C65.3167 61.2598 66.0406 59.351 66.2045 57.3085C66.4348 54.4325 65.5317 51.6391 63.661 49.4426C61.7892 47.2454 59.1751 45.9088 56.2993 45.6785ZM44.1391 49.6106C42.5692 49.4846 41.1421 48.7552 40.1209 47.5559C38.58 45.7467 38.3266 43.2685 39.2674 41.242L46.2205 49.4066C45.5532 49.5954 44.8508 49.667 44.1391 49.6106ZM53.8259 50.7719C54.4933 50.583 55.1954 50.5114 55.9074 50.5676C57.4775 50.6936 58.9046 51.423 59.9258 52.6223C60.947 53.8216 61.4402 55.3463 61.3144 56.9164C61.2573 57.6286 61.0748 58.3109 60.7817 58.9397L53.8259 50.7719Z" fill="black"/>
<path d="M77.5829 26.6187C64.6413 11.4228 41.7496 9.58858 26.5527 22.5297C19.1913 28.799 14.712 37.5596 13.9395 47.1979C13.1674 56.8363 16.1946 66.1984 22.4639 73.5596C28.7332 80.9213 37.4936 85.4005 47.1321 86.1731C48.119 86.2521 49.1027 86.2913 50.0822 86.2913C58.6665 86.2913 66.8865 83.2757 73.4938 77.6487C88.6903 64.7071 90.5245 41.8152 77.5829 26.6187ZM68.7235 72.0472C62.8581 77.0422 55.3993 79.4552 47.7195 78.8389C40.0402 78.2235 33.0604 74.6544 28.0652 68.789C23.0701 62.9239 20.6581 55.4646 21.2734 47.7851C21.8888 40.1058 25.4579 33.126 31.3231 28.1307C36.7421 23.5158 43.3867 21.2595 50.0021 21.2595C58.1669 21.2595 66.2852 24.6999 71.9814 31.3886C82.2927 43.4969 80.8312 61.7359 68.7235 72.0472Z" fill="black"/>
<path d="M90.5978 20.8718L93.6656 21.763C94.9659 22.1407 96.3271 21.3927 96.705 20.0919C97.0827 18.7911 96.3344 17.4304 95.0339 17.0525L84.7334 14.0607C83.992 13.8459 83.1934 13.9915 82.5766 14.4546C81.9598 14.9181 81.5969 15.6445 81.5969 16.4158V27.7461C81.5969 29.1004 82.6951 30.1986 84.0494 30.1986C85.4036 30.1986 86.5019 29.1004 86.5019 27.7461V23.5744C100.226 42.4283 97.3049 69.0548 79.2618 84.421C72.0767 90.5397 63.327 94.2035 53.9589 95.0155C52.6093 95.1328 51.6104 96.3213 51.7271 97.6706C51.838 98.9481 52.909 99.9117 54.1676 99.9117C54.2387 99.9117 54.3103 99.9085 54.3822 99.9024C64.7727 99.0016 74.4755 94.9395 82.4417 88.1554C102.39 71.1669 105.666 41.7656 90.5978 20.8718Z" fill="black"/>
<path d="M45.5115 94.9577C33.87 93.7886 23.2798 88.2378 15.6913 79.3274C5.60907 67.4887 2.34675 51.5428 6.96407 36.672C7.36579 35.3786 6.64279 34.0042 5.34935 33.6025C4.05541 33.201 2.68151 33.924 2.2798 35.2172C-2.83931 51.7029 0.778374 69.3815 11.9569 82.5073C20.3709 92.3869 32.1132 98.5417 45.0212 99.8381C45.1046 99.8465 45.1873 99.8506 45.2692 99.8506C46.5133 99.8506 47.5797 98.9072 47.7065 97.6429C47.8421 96.2953 46.8592 95.093 45.5115 94.9577Z" fill="black"/>
<path d="M6.96921 29.7366C7.33831 29.9348 7.73561 30.0287 8.12728 30.0287C9.00135 30.0287 9.84771 29.56 10.2901 28.736C10.9916 27.4295 11.767 26.1439 12.5945 24.915C13.3513 23.7915 13.0539 22.2675 11.9304 21.5109C10.8069 20.7541 9.2829 21.0513 8.5263 22.1751C7.60784 23.5389 6.74726 24.9655 5.96834 26.4157C5.32799 27.6088 5.77582 29.0955 6.96921 29.7366Z" fill="black"/>
<path d="M19.1962 16.3425C19.7583 16.3425 20.3236 16.1502 20.7852 15.7571C29.4881 8.34564 40.5668 4.53739 51.9793 5.03623C53.3311 5.09779 54.4771 4.0464 54.5362 2.69287C54.5954 1.33958 53.5462 0.194748 52.1929 0.135888C39.5409 -0.415925 27.2541 3.80532 17.605 12.0229C16.5737 12.9012 16.4496 14.4492 17.3279 15.4802C17.8132 16.0499 18.5024 16.3425 19.1962 16.3425Z" fill="black"/>
</g>
<defs>
<clipPath id="clip0_2:74">
<rect width="100" height="100" fill="white"/>
</clipPath>
</defs>
</svg>
