<svg width="100" height="100" viewBox="0 0 100 100" fill="none" xmlns="http://www.w3.org/2000/svg">
<path d="M68.3587 60.0258C69.657 58.7652 70.7646 57.3162 71.6406 55.7238H72.5933C77.1875 55.7238 80.9252 51.9863 80.9252 47.392V26.0947C80.9252 22.848 80.3357 19.6797 79.173 16.6781C77.2929 11.8209 74.033 7.67227 69.7461 4.68066C65.3572 1.61875 60.1988 0 54.8279 0H45.1695C39.7986 0 34.6398 1.61914 30.2505 4.68203C25.9882 7.65684 22.742 11.7744 20.858 16.5947C20.8453 16.6232 20.8332 16.6521 20.8216 16.6814C19.6609 19.6852 19.0722 22.852 19.0722 26.0947V43.9754C19.0722 46.5611 21.1757 48.6646 23.7615 48.6646H24.8929C25.3334 48.6646 25.758 48.5992 26.1627 48.4854C26.5384 52.8924 28.4906 56.9799 31.6349 60.0275C23.347 63.523 17.7935 71.6949 17.7935 80.9076V98.2559C17.7935 99.2189 18.5744 99.9998 19.5375 99.9998H80.4621C81.4255 99.9998 82.206 99.2189 82.206 98.2559V80.9076C82.2062 71.6932 76.6496 63.5201 68.3587 60.0258ZM73.1236 52.2055C73.4906 50.9953 73.7294 49.7531 73.8365 48.4861C74.2404 48.5998 74.6642 48.665 75.1041 48.665H76.2355C76.6 48.665 76.9529 48.6191 77.2935 48.5402C76.8171 50.4906 75.1607 51.9824 73.1236 52.2055ZM77.4369 34.2166V43.9754C77.4369 44.6379 76.898 45.1768 76.2355 45.1768H75.1041C74.4416 45.1768 73.9027 44.6377 73.9027 43.9754V33.652C73.9027 32.9895 74.4416 32.4506 75.1041 32.4506H76.2355C76.898 32.4506 77.4369 32.9895 77.4369 33.652V34.2166ZM26.0947 43.9754C26.0947 44.6379 25.5556 45.1768 24.8931 45.1768H23.7617C23.0992 45.1768 22.5603 44.6377 22.5603 43.9754V34.2166V33.652C22.5603 32.9895 23.0992 32.4506 23.7617 32.4506H24.8931C25.5556 32.4506 26.0947 32.9895 26.0947 33.652V43.9754ZM26.0947 26.8459V29.1246C25.7105 29.0225 25.3091 28.9627 24.8931 28.9627H23.7617C23.3459 28.9627 22.9445 29.0225 22.5603 29.1246V26.0949C22.5603 23.3129 23.0595 20.5967 24.0443 18.0195C24.056 17.9932 24.0672 17.9666 24.0775 17.9395C25.705 13.7316 28.5298 10.1365 32.2464 7.54277C36.0474 4.89004 40.516 3.48809 45.1691 3.48809H54.8275C59.4808 3.48809 63.9492 4.88984 67.7494 7.54141C71.4656 10.1346 74.2908 13.7295 75.9197 17.9377C76.9263 20.5363 77.4365 23.2807 77.4365 26.0949V29.1246C77.0523 29.0225 76.6509 28.9627 76.2351 28.9627H75.1037C74.6878 28.9627 74.2865 29.0225 73.9023 29.1246V26.8459C73.9023 15.6717 64.8113 6.58066 53.6371 6.58066H46.3595C35.1857 6.58047 26.0947 15.6715 26.0947 26.8459ZM29.5828 26.8461C29.5828 17.5951 37.1091 10.0687 46.3601 10.0687H53.6377C62.8886 10.0687 70.415 17.5951 70.415 26.8461V32.2852L62.6066 21.3553C62.2343 20.8342 61.6064 20.5586 60.9705 20.6387C60.3349 20.7184 59.7939 21.1402 59.5621 21.7373C58.0027 25.7494 55.3005 29.1547 51.748 31.5855C48.1955 34.0158 44.0427 35.3006 39.7382 35.3006H29.5832V26.8461H29.5828ZM29.5828 46.9209V43.9756V38.7881H39.7378C44.748 38.7881 49.582 37.2928 53.7173 34.4641C56.9921 32.2238 59.6461 29.2715 61.5103 25.8209L70.415 38.2855V43.9758V46.9211C70.415 48.7588 70.0783 50.5412 69.4226 52.2361H56.772C55.8086 52.2361 55.0281 53.017 55.0281 53.9801C55.0281 54.9432 55.8087 55.724 56.772 55.724H67.5062C66.4998 57.0811 65.2648 58.2623 63.8492 59.2084C62.7814 59.9215 61.6209 60.4943 60.3982 60.9107C60.3836 60.9154 60.3687 60.9201 60.3543 60.925L52.2541 63.652C50.8058 64.1398 49.1964 64.1398 47.7441 63.652L39.6447 60.925C38.4039 60.5072 37.2279 59.9295 36.149 59.2082C32.0373 56.4621 29.5828 51.8688 29.5828 46.9209ZM61.1326 74.0682L51.7439 69.0147V67.3629C52.2941 67.2711 52.8363 67.1361 53.3668 66.9574L59.541 64.8787L61.1326 74.0682ZM48.2556 67.3633V69.0148L38.8654 74.0684L40.4584 64.8799L46.6316 66.9582C47.1628 67.1367 47.7054 67.2715 48.2556 67.3633ZM48.2556 96.5121H21.2814V80.908C21.2816 72.4219 26.8474 64.977 34.9056 62.5479C35.617 62.9781 36.3584 63.3592 37.1246 63.6895L34.8162 77.0043C34.7023 77.6619 34.9734 78.327 35.515 78.7172C35.8177 78.9355 36.1754 79.0465 36.5349 79.0465C36.8179 79.0465 37.1019 78.9777 37.3609 78.8383L41.8488 76.4234L48.2556 82.8285V96.5121V96.5121ZM45.0562 74.6975L50 72.0373L54.9421 74.6973L49.9998 79.6396L45.0562 74.6975ZM78.7181 96.5119H51.7439V82.8281L58.149 76.4229L62.6365 78.8379C62.8953 78.9771 63.1795 79.0461 63.4625 79.0461C63.8216 79.0461 64.1794 78.9352 64.4824 78.717C65.0238 78.3268 65.2951 77.6619 65.1812 77.0043L62.875 63.6885C63.6398 63.3586 64.3804 62.9773 65.0918 62.5475C73.1515 64.9764 78.7183 72.4213 78.7183 80.9076V96.5119H78.7181Z" fill="black"/>
<path d="M70.7599 83.1622H61.924C60.9605 83.1622 60.1801 83.9431 60.1801 84.9062C60.1801 85.8693 60.9607 86.6501 61.924 86.6501H70.7599C71.7234 86.6501 72.5039 85.8693 72.5039 84.9062C72.5039 83.9431 71.7232 83.1622 70.7599 83.1622Z" fill="black"/>
</svg>
