<svg width="100" height="100" viewBox="0 0 100 100" fill="none" xmlns="http://www.w3.org/2000/svg">
<path fill-rule="evenodd" clip-rule="evenodd" d="M1.47021 46.3679H6.12117V53.0888C6.12117 54.5238 6.82413 55.4286 8.32603 55.4286C9.69305 55.4286 10.4837 54.2623 10.4837 52.9887V46.3679H15.0205V54.0605C15.0205 55.6553 14.2963 57.2298 12.9697 58.1553C11.6229 59.0865 9.89382 59.3143 8.29231 59.3143C4.78788 59.3143 1.47073 58.0811 1.47073 54.0605V46.3679H1.47021V46.3679ZM16.3336 58.9392V46.3679H20.9103V47.8356C22.0833 46.6159 23.3964 45.9259 25.1255 45.9259C27.8663 45.9259 29.8564 47.5072 29.8564 50.3351V58.9397H25.2728V52.3791C25.2728 50.9193 24.8101 49.7058 23.1349 49.7058C21.4727 49.7058 20.9098 51.1268 20.9098 52.5809V58.9402H16.3336V58.9392V58.9392ZM31.2706 58.9392V46.3679H35.921V58.9392H31.2706V58.9392ZM47.1788 54.6302V58.4635C46.1199 59.0663 44.8805 59.2883 43.6676 59.2883C40.0423 59.2883 37.0738 56.4065 37.0738 52.761C37.0738 48.9816 40.0226 45.9062 43.8419 45.9062C45.0284 45.9062 46.1609 46.1677 47.1793 46.7638V50.5701C46.4623 50.1478 45.6779 49.7722 44.8271 49.7722C43.1924 49.7722 41.9924 50.9649 41.9924 52.6007C41.9924 54.1549 43.1182 55.3404 44.6995 55.3404C45.584 55.3404 46.4016 55.0192 47.1788 54.6302V54.6302ZM52.4523 53.7726C52.4523 55.0991 53.0287 56.1647 54.5166 56.1647C55.4348 56.1647 56.0444 55.7756 56.4527 54.9923H60.7815C60.353 56.3115 59.7833 57.485 58.5979 58.2886C57.3709 59.1337 55.8965 59.4217 54.4294 59.4217C52.1649 59.4217 49.9533 58.4235 48.841 56.3857C48.2376 55.2729 47.8625 53.9599 47.8625 52.6873C47.8625 50.8373 48.5396 48.7466 49.9201 47.4802C51.1994 46.3072 53.0297 45.8051 54.7448 45.8051C58.9325 45.8051 61.0767 48.4587 61.0767 52.445C61.0767 52.8881 61.0237 53.3295 60.963 53.7726H52.4523V53.7726ZM61.9145 58.9392V46.7902C61.9145 44.9273 62.0146 42.8298 63.4164 41.4296C64.5754 40.2706 66.3782 39.9552 67.9527 39.9552H69.1454V43.2588H68.4279C66.7195 43.2588 66.5452 44.3109 66.5452 45.7988V46.5355H68.9841V49.9803H66.5452V58.9397H61.9145V58.9392V58.9392ZM82.138 61.0501L81.7297 60.6548C82.4399 59.7968 83.4656 59.1877 84.4705 58.7244C83.9071 58.4904 83.3245 58.2959 82.7087 58.2824L82.5473 58.4697C81.917 59.2266 81.1196 59.4544 80.1479 59.4544C79.4579 59.4544 78.6605 59.3874 78.0038 59.1664L77.3008 58.9387L77.0393 58.7644V58.7312C77.0393 58.5237 77.9706 58.3753 78.1174 58.3493L79.2037 58.1346C80.0897 57.9506 80.9919 57.8562 81.8968 57.8529C83.0033 57.8529 84.0954 58.0749 85.134 58.4427C86.2193 58.0879 87.3518 57.8529 88.4968 57.8529C89.73 57.8529 90.9429 58.0142 92.1294 58.3218C92.257 58.355 93.1348 58.5102 93.1348 58.7441C93.1348 59.1597 90.4475 59.4678 90.0859 59.4678C89.2278 59.4678 88.0683 59.1799 87.714 58.3027C87.6533 58.3027 87.5863 58.2954 87.5194 58.2954C86.956 58.2954 86.32 58.5029 85.8038 58.7177C86.7423 59.1524 87.66 59.7288 88.3837 60.4727L88.5243 60.6206L88.129 61.0024L87.9142 60.8208L87.5189 60.466C87.1978 60.1713 85.5693 59.0253 85.1734 58.9978C84.8186 58.9714 83.478 59.8761 83.1704 60.1106C82.8015 60.3996 82.4674 60.7218 82.138 61.0501V61.0501ZM77.6349 53.9402L78.0442 54.3495C78.5267 54.832 80.4966 56.9891 80.4966 57.6526C80.4966 57.8005 80.2351 57.7932 80.135 57.7932C79.224 57.7932 78.4063 57.1224 77.9706 56.3655C77.5569 55.6533 77.3394 54.8442 77.3402 54.0206C77.3402 53.9536 77.3402 53.8058 77.4346 53.8058C77.5145 53.8063 77.5887 53.8935 77.6349 53.9402V53.9402ZM73.8353 55.8633C73.8493 55.7834 73.9427 55.7559 74.0096 55.7559C74.6602 55.7559 79.0294 57.3652 79.0294 57.8404C79.0294 58.189 77.8559 58.1351 77.6889 58.1351C76.7301 58.1351 75.8456 57.7066 75.0959 57.1297C74.9419 57.0093 73.8088 56.0983 73.8353 55.8633ZM75.7595 53.5386C75.7595 53.3238 75.8933 51.4879 76.1548 51.4879C76.4163 51.4879 76.9044 53.5578 76.9651 53.799C77.1659 54.6369 77.3003 55.4545 77.3003 56.3188C77.3003 56.393 77.2863 56.5336 77.1856 56.5336C76.8505 56.5336 76.2414 55.4675 76.1138 55.2195C75.8456 54.7038 75.7595 54.1145 75.7595 53.5386ZM72.3215 52.319C72.3215 52.2723 72.3344 52.2116 72.3884 52.2116C73.0249 52.2116 76.3421 55.4083 76.3421 56.0781C76.3421 56.158 76.2954 56.1855 76.2217 56.1855C75.2562 56.1855 74.0501 55.1469 73.4607 54.4698C73.1323 54.088 72.3215 52.8549 72.3215 52.319ZM75.5509 53.0624L75.3574 53.8193C75.3372 53.8935 75.2905 54.0937 75.1893 54.0937C74.8075 54.0937 74.6197 52.3781 74.6197 52.0502C74.6197 51.4604 74.781 50.8575 74.9958 50.3144C75.0555 50.1675 75.4171 49.1756 75.6453 49.1756C75.8663 49.1756 75.8399 49.6446 75.8399 49.7717C75.8399 50.8575 75.8191 52.0108 75.5509 53.0624V53.0624ZM72.737 49.4708L73.3196 50.4015C73.6755 50.9779 74.5325 52.5799 74.5325 53.2761C74.5325 53.3301 74.5123 53.411 74.4454 53.411C74.2913 53.411 74.1507 53.3109 74.0371 53.2092L73.5276 52.7542C72.6166 51.9366 72.0605 50.2749 72.0605 49.0615C72.0605 48.9878 72.087 48.8467 72.1809 48.8467C72.4148 48.8472 72.6369 49.3095 72.737 49.4708V49.4708ZM75.6521 47.1586C75.6988 47.1586 75.706 47.199 75.706 47.239C75.706 47.8351 74.6197 51.4069 74.1445 51.4069C73.9167 51.4069 73.937 50.7647 73.937 50.6298C73.937 49.5979 74.3188 48.7134 74.9278 47.9025C75.0217 47.7822 75.4575 47.1586 75.6521 47.1586ZM72.489 47.0849C72.489 46.8904 72.5689 45.5368 72.778 45.5368C72.9855 45.5368 73.2864 46.7902 73.3274 46.9511C73.5889 47.916 73.7694 48.9614 73.7694 49.9662C73.7694 50.0731 73.7969 50.4549 73.6091 50.4549C73.387 50.4549 72.9715 49.5372 72.8978 49.3359C72.6223 48.633 72.489 47.8423 72.489 47.0849V47.0849ZM74.4583 48.2579L74.1907 48.5463C74.1367 48.5998 74.0501 48.7004 73.9629 48.7004C73.8757 48.7004 73.8757 48.593 73.8757 48.5328C73.8757 47.6815 74.2576 46.9179 74.7867 46.2746C75.0015 46.0131 75.8456 45.0751 76.1942 45.0751C76.2419 45.0751 76.2684 45.1021 76.2684 45.142C76.2684 45.8383 74.9611 47.708 74.4583 48.2579V48.2579ZM73.9764 43.0508C74.2508 43.0643 74.2581 44.8868 74.2581 45.0611C74.2581 45.2956 74.104 47.6208 73.7818 47.6208C73.414 47.6208 73.3139 45.7511 73.3139 45.5031C73.3139 44.9537 73.4011 44.424 73.5681 43.9016C73.6086 43.7813 73.7818 43.0378 73.9764 43.0508V43.0508ZM76.4225 43.098L76.6435 42.9507C76.6637 42.9439 76.684 42.9237 76.7042 42.9237C76.7509 42.9304 76.7711 42.9906 76.7711 43.0311C76.7711 43.5001 75.9473 44.713 75.6791 45.0746C75.525 45.2759 74.7945 46.1869 74.5066 46.1869C74.4397 46.1869 74.3919 46.1267 74.3919 46.066C74.3919 45.0144 75.5914 43.6474 76.4225 43.098V43.098ZM76.4629 41.6439L76.2611 42.2067C75.9934 42.9709 75.5042 43.788 74.9419 44.3711L74.7603 44.5589C74.7136 44.6129 74.6529 44.6793 74.5797 44.6793C74.4651 44.6793 74.4449 44.5319 74.4449 44.4448C74.4449 43.6676 74.8936 42.8967 75.3833 42.3204C75.5374 42.1326 76.1807 41.3554 76.4422 41.3554C76.4889 41.3554 76.4962 41.4291 76.4962 41.4628C76.4962 41.5235 76.4832 41.5837 76.4629 41.6439V41.6439ZM90.0729 57.8134C89.9717 57.8134 89.8711 57.773 89.8711 57.6594C89.8711 57.1364 92.6456 53.7793 93.0212 53.7793C93.1011 53.7793 93.1083 53.893 93.1083 53.9464C93.1089 55.6496 91.9888 57.8134 90.0729 57.8134ZM91.6205 57.5452L92.2243 57.2303C92.974 56.8423 95.5944 55.7704 96.4457 55.7704C96.4924 55.7704 96.5796 55.7907 96.5796 55.8503C96.5796 56.145 95.1254 57.2376 94.8977 57.3854C94.1672 57.8679 93.3304 58.1626 92.4516 58.1626C92.2783 58.1626 91.3066 58.1688 91.3066 57.8477C91.3061 57.6993 91.5068 57.5987 91.6205 57.5452V57.5452ZM93.5706 56.2057L93.3019 56.4599C93.2624 56.5004 93.2085 56.5543 93.1478 56.56C93.0404 56.5673 93.0606 56.339 93.0606 56.2856V56.1855C93.0606 55.0192 93.4222 53.8338 93.7843 52.7345C93.8186 52.6198 94.1532 51.5086 94.3477 51.5086C94.4754 51.5086 94.5091 51.8432 94.5221 51.9299L94.6357 52.6069C94.6761 52.8621 94.6896 53.1226 94.6896 53.384C94.6896 54.4366 94.3348 55.4607 93.5706 56.2057V56.2057ZM97.8729 52.3594L98.0602 52.2723C98.0804 52.265 98.1069 52.2448 98.1401 52.2448C98.1806 52.2448 98.2143 52.2915 98.2143 52.3319C98.212 52.3668 98.2026 52.4009 98.1868 52.432L97.973 52.9145C97.5373 53.8862 96.6994 54.9388 95.7812 55.5085C95.46 55.703 94.548 56.2114 94.1662 56.2114C94.093 56.2114 94.0458 56.171 94.0458 56.0978C94.0458 55.7025 95.3324 54.4423 95.6214 54.1544C96.1837 53.5853 97.1425 52.7137 97.8729 52.3594V52.3594ZM94.7503 49.8858L94.7768 49.4371C94.784 49.3836 94.8043 49.1689 94.8971 49.1761C94.9713 49.1829 95.0248 49.2897 95.0585 49.3437L95.3402 49.8526C95.7018 50.5162 95.8823 51.3135 95.8823 52.0705C95.8823 52.3055 95.6146 54.1477 95.2935 54.1477C94.8971 54.1477 94.7171 51.1263 94.7171 50.898C94.7166 50.5629 94.7301 50.2215 94.7503 49.8858V49.8858ZM96.5791 50.9245L96.5251 51.2264C96.5121 51.286 96.4986 51.3934 96.4188 51.3934C96.0499 51.3934 95.1581 48.5858 95.058 48.1707C95.0507 48.1505 94.7633 47.1788 94.991 47.1788C95.3397 47.1788 96.0831 48.5188 96.2169 48.8275C96.452 49.3437 96.619 49.8931 96.619 50.47C96.6195 50.6236 96.6066 50.7776 96.5791 50.9245V50.9245ZM98.1204 46.1132L98.1609 46.7093C98.1738 46.8167 98.1738 46.9173 98.1738 47.0175C98.1738 47.6742 98.04 48.4244 97.8325 49.048C97.7583 49.2488 97.2161 50.469 96.9215 50.469C96.8068 50.469 96.7938 50.2614 96.7938 50.1873C96.7938 49.0677 97.0615 48.0224 97.3837 46.964C97.4242 46.8364 97.7588 45.6173 97.9331 45.6173C98.081 45.6178 98.1142 46.0261 98.1204 46.1132ZM96.3918 53.2299L96.0769 53.4115C96.0431 53.4344 96.0039 53.448 95.9633 53.4509C95.9166 53.4509 95.9093 53.3778 95.9093 53.3446C95.9093 52.7215 98.0197 48.8343 98.482 48.8343C98.5297 48.8343 98.5297 48.9147 98.5297 48.9484C98.5297 49.6991 98.3149 50.483 98.0405 51.1802C97.7526 51.9164 97.0818 52.8346 96.3918 53.2299V53.2299ZM96.7139 48.3181V48.5458C96.7139 48.606 96.7139 48.6931 96.6398 48.6931C96.5324 48.6931 96.4452 48.5526 96.3856 48.4851L95.9358 47.9492C95.5607 47.5005 94.4017 45.8118 94.4017 45.2022C94.4017 45.1618 94.4219 45.1083 94.4686 45.1083C94.563 45.1083 94.6559 45.1752 94.7228 45.2287L95.1726 45.5773C95.9358 46.1672 96.7331 47.3126 96.7139 48.3181ZM94.0863 43.4933L94.0064 43.2251C93.9934 43.1784 93.9732 43.1245 93.9732 43.0778C93.9732 43.0441 93.9996 43.0238 94.0328 43.0238C94.4759 43.0238 95.4139 44.1159 95.6681 44.478C95.9498 44.8868 96.2782 45.4429 96.2782 45.9519C96.2782 46.012 96.2911 46.2268 96.191 46.2268C95.6146 46.2273 94.2403 44.0225 94.0863 43.4933V43.4933ZM94.5091 41.483L94.9781 41.9121C95.6011 42.4817 96.2974 43.4399 96.2974 44.3312C96.2974 44.4183 96.3248 44.7265 96.1972 44.7265C95.6888 44.7265 94.7166 42.7701 94.5558 42.3743C94.5485 42.3608 94.1605 41.3756 94.355 41.3959C94.4147 41.3959 94.4686 41.4426 94.5091 41.483ZM97.0615 47.3261L96.9479 47.5741C96.9277 47.6146 96.9075 47.6613 96.8535 47.6613C96.592 47.6613 96.4452 45.6842 96.4452 45.4435C96.4452 45.2287 96.6066 43.0778 96.7866 43.0778C96.8737 43.0778 96.9407 43.3657 96.9609 43.4259L97.1554 43.9685C97.3427 44.4847 97.3904 45.1275 97.3904 45.6774C97.391 46.2341 97.2836 46.8172 97.0615 47.3261V47.3261Z" fill="black"/>
<path fill-rule="evenodd" clip-rule="evenodd" d="M76.3291 48.2781C76.3291 45.651 77.3942 43.0311 79.3781 41.2822C80.9993 39.8416 83.1637 38.9498 85.3421 38.9498C90.3002 38.9498 94.2476 43.0643 94.2476 47.9829C94.2476 52.968 90.1601 57.1702 85.1538 57.1702C80.2818 57.1702 76.3291 53.1164 76.3291 48.2781V48.2781ZM33.5891 39.8011C35.05 39.8011 36.2562 41.0275 36.2562 42.4817C36.2562 43.9359 35.0568 45.1753 33.5891 45.1753C32.1287 45.1753 30.922 43.9426 30.922 42.4817C30.922 41.0275 32.1282 39.8011 33.5891 39.8011Z" fill="black"/>
<path fill-rule="evenodd" clip-rule="evenodd" d="M52.5193 51.0786H56.7345C56.6675 49.8527 56.1181 48.8275 54.7506 48.8275C53.2964 48.8275 52.7071 49.7588 52.5193 51.0786ZM87.7872 40.1092C87.9278 39.9754 88.0689 39.841 88.2168 39.7072L87.9424 39.6335C87.4065 39.4862 86.8835 39.372 86.3274 39.3186L86.4877 39.4058L86.8171 39.5531C87.1579 39.7004 87.4729 39.9147 87.7872 40.1092V40.1092ZM85.6099 42.877C86.2402 42.8298 86.843 42.7561 87.4459 42.5621C87.2451 42.0931 87.0246 41.6438 86.7294 41.222C86.3668 41.3092 86.0119 41.3694 85.6374 41.3829L85.6099 42.877ZM85.6026 45.0077C86.2807 45.0004 86.9369 44.8536 87.614 44.8266C87.7872 44.8131 88.1359 44.7861 88.1359 44.5454C88.1359 44.4987 88.1229 44.4583 88.1167 44.4183L88.0223 44.0365C87.9351 43.6547 87.781 43.2993 87.6269 42.9444C86.9634 43.1452 86.2864 43.2256 85.5964 43.2796L85.6026 45.0077V45.0077ZM87.8147 42.4682C88.2974 42.3105 88.7571 42.0897 89.1818 41.8114C88.7735 41.3554 88.3377 40.9201 87.8147 40.5985C87.5919 40.7794 87.3463 40.9304 87.0843 41.0477L87.2249 41.2957L87.4993 41.7647C87.6269 41.9857 87.7203 42.2269 87.8147 42.4682V42.4682ZM89.5371 41.6303C89.8586 41.4236 90.1572 41.1832 90.4279 40.9134C89.9049 40.4376 89.2284 40.116 88.5654 39.868C88.4248 40.0356 88.2635 40.1762 88.1094 40.3235C88.6453 40.6721 89.1216 41.1546 89.5371 41.6303V41.6303ZM89.7986 41.9452C90.2536 42.4749 90.6629 43.0581 90.984 43.6811C91.4401 43.4197 91.8888 43.1312 92.2841 42.7831C91.8686 42.1865 91.3591 41.5966 90.763 41.1748C90.5757 41.3559 90.3739 41.5167 90.1602 41.6775L89.7986 41.9452V41.9452Z" fill="white"/>
<path fill-rule="evenodd" clip-rule="evenodd" d="M82.2454 39.8275C78.9288 41.1209 76.576 44.5724 76.576 48.1235C76.576 52.9083 80.4032 56.862 85.2139 56.862C90.2602 56.862 94.0059 52.6733 94.0059 47.7484C94.0059 46.08 93.4161 44.4982 92.5377 43.1042L92.1829 43.3589C91.8477 43.5934 91.5059 43.8144 91.1443 44.009C91.2185 44.1631 91.2983 44.3374 91.2983 44.5117C91.2983 44.5786 91.2781 44.7259 91.1837 44.7259C91.0031 44.7259 90.8361 44.3374 90.7754 44.2035C90.5269 44.2839 90.2597 44.4183 89.991 44.4183C89.9313 44.4183 89.8105 44.3711 89.8105 44.2907C89.8105 44.0759 90.4397 43.8886 90.6006 43.815C90.2924 43.1986 89.9438 42.6492 89.4686 42.1465C88.9923 42.4147 88.5098 42.6492 87.9942 42.8365C88.1005 43.098 88.2079 43.3527 88.2951 43.6209L88.4621 44.1299C88.4953 44.244 88.5363 44.3644 88.5363 44.4852C88.5363 44.9745 88.115 45.1555 87.7052 45.2022L86.7335 45.3226C86.3584 45.3692 85.9766 45.3895 85.5947 45.3962L85.601 45.9923C85.601 46.1194 85.601 46.3342 85.4137 46.3342C85.2394 46.3342 85.1927 46.1869 85.1859 46.0328L85.173 45.4632C84.9924 45.4632 84.4492 45.4834 84.4492 45.2022C84.4492 45.0616 84.6033 45.0211 84.718 45.0211C84.8243 45.0211 84.9317 45.0279 85.0464 45.0279H85.2134L85.2005 43.3325L84.6371 43.3055C84.5598 43.1321 84.4632 42.968 84.3491 42.8163L85.2337 42.877V41.3756C84.8648 41.3554 84.5234 41.2822 84.1675 41.1811C84.0539 41.3351 83.7126 42.0324 83.5382 42.0324C83.4511 42.0324 83.3977 41.9385 83.3977 41.8581C83.3977 41.5702 83.6316 41.235 83.7857 41.0067C83.5102 40.8893 83.2514 40.7362 83.0158 40.5513C82.7808 40.6986 81.9165 41.429 81.8091 41.429C81.722 41.429 81.6825 41.3149 81.6825 41.2412C81.6825 40.9533 82.4726 40.4843 82.6937 40.337C82.5344 40.1762 82.3865 40.0018 82.2454 39.8275V39.8275ZM84.3766 39.3653H84.3227C83.7603 39.3653 83.2508 39.5059 82.7217 39.7004C82.8291 39.841 82.9427 39.9619 83.0765 40.0688C83.4921 39.7876 83.9216 39.5733 84.3766 39.3653V39.3653Z" fill="white"/>
<path fill-rule="evenodd" clip-rule="evenodd" d="M84.8731 39.5796C84.3169 39.7404 83.8407 39.9884 83.3452 40.2966C83.5662 40.4372 83.794 40.558 84.0279 40.6649L84.2967 40.2966L84.6381 39.881L84.8731 39.5796ZM84.4098 40.8128C84.6785 40.8994 84.9457 40.9668 85.2274 41.0203L85.2549 39.8271C85.1869 39.7944 84.4767 40.7189 84.4098 40.8128V40.8128ZM85.6632 39.8545L85.6559 41.0068C85.9338 40.9727 86.2093 40.9212 86.4808 40.8527C86.2396 40.4844 85.9916 40.1497 85.6632 39.8545ZM86.9093 40.6857C87.0941 40.584 87.273 40.4721 87.4453 40.3505C87.0297 40.0558 86.6349 39.8416 86.1524 39.6735C86.3599 39.935 86.5607 40.1964 86.748 40.4641L86.9093 40.6857Z" fill="white"/>
<path fill-rule="evenodd" clip-rule="evenodd" d="M77.6349 46.8504C77.5213 46.9173 77.4072 46.9843 77.2936 47.0579C77.388 45.8585 77.9706 43.8814 78.9553 43.1379C78.8883 43.3455 78.8417 43.5467 78.8214 43.761C78.1984 44.686 77.8295 45.7583 77.6349 46.8504ZM90.7563 53.9807L90.6629 53.7192C91.3062 53.1164 91.8421 52.3786 92.1897 51.5621L92.6789 51.1527C92.2707 52.2246 91.7145 53.3036 90.7563 53.9807V53.9807Z" fill="black"/>
<path fill-rule="evenodd" clip-rule="evenodd" d="M90.4682 54.3221C88.9663 55.5148 87.2247 56.2992 85.2886 56.2992C80.5577 56.2992 77.1461 52.5603 77.1461 47.9228C77.1461 46.7031 79.2509 46.6964 79.2509 45.5638C79.2509 44.9875 79.0231 44.438 79.0231 43.8684C79.0231 42.5751 80.2023 41.5499 81.449 41.5499C82.7356 41.5499 84.5312 42.6757 84.5312 44.0967C84.5312 44.9475 83.8687 45.3428 83.8687 45.8455C83.8687 46.0064 83.8951 46.1672 83.8951 46.328C83.8951 46.5023 83.6409 46.5355 83.6207 46.7233L83.6077 46.824L83.4931 46.9983L83.3929 47.1793C83.3462 47.253 83.0718 47.4611 82.9846 47.555C82.8305 47.7225 82.6085 47.7562 82.388 47.7562C82.2474 47.7562 82.1001 47.7495 81.9657 47.7158L81.5979 47.6157C81.5364 47.6019 81.4736 47.5951 81.4106 47.5954C81.2088 47.5954 80.9748 47.736 80.9748 47.9575C80.9748 48.3191 81.1756 48.6745 81.1621 49.0428L81.1419 50.0151L81.1548 50.082L81.2622 50.4031L81.3421 50.6786C81.4635 51.1274 82.167 51.0942 82.6287 51.2742L83.0241 51.422C83.078 51.4412 83.1444 51.4817 83.2056 51.4817C83.4469 51.4817 83.7286 51.0257 84.1307 51.0257C84.2847 51.0257 84.291 51.2607 84.4253 51.2477L84.8072 51.2145C84.887 51.2005 84.9472 51.5227 84.9472 51.5896C84.9472 52.152 84.5592 52.8762 83.9288 52.8762C83.6674 52.8762 83.4666 52.6687 83.2259 52.6687C83.1257 52.6687 82.3808 52.8762 82.1743 52.9099C81.8796 52.9566 81.5844 53.0033 81.2897 53.0033C81.062 53.0033 80.7263 53.0106 80.5318 52.8897L80.3777 52.7896C80.3512 52.7766 80.3237 52.7564 80.2905 52.7564C80.0493 52.7564 79.9289 53.3665 79.9289 53.5263C79.9289 54.264 80.8674 54.5384 81.4438 54.5384C81.8116 54.5384 82.1935 54.4845 82.5359 54.3366L83.5745 53.8816C84.3242 53.5532 85.5978 53.4126 85.8126 53.298C85.9999 53.1979 86.1472 53.0235 86.1472 52.8025C86.1466 52.7101 86.1354 52.618 86.114 52.5281L86.0206 52.1592L85.9464 51.7105L85.8857 51.2213C85.7519 50.042 84.3517 49.9819 84.3517 49.1036C84.3517 48.742 84.7335 48.5339 84.747 48.192C84.7542 48.0514 84.7734 47.9575 84.9083 47.8906L85.0422 47.8304C85.2295 47.7433 85.0422 47.3277 85.2834 47.2406L85.411 47.1939C85.699 47.0932 85.4375 46.4971 85.8468 46.4432L86.1752 46.3965L86.5705 46.3161C87.053 46.2154 87.0266 45.733 87.5962 45.485L88.1918 45.2235L88.4138 45.0829L88.6743 44.8085C88.9093 44.574 89.3046 44.5268 89.6195 44.5268C91.8244 44.5268 93.4394 46.2424 93.4394 48.4001C93.4394 50.082 92.0786 52.2199 90.2291 52.2199C90.1087 52.2199 89.9878 52.2059 89.8675 52.2059C89.5655 52.2059 89.5453 52.5411 89.5453 52.7766C89.5453 53.5538 90.4838 54.0897 90.4838 54.1032C90.4838 54.1701 90.4708 54.237 90.4708 54.3039V54.3221H90.4682V54.3221Z" fill="black"/>
</svg>
